<?xml version="1.0" standalone="no"?><!DOCTYPE svg PUBLIC "-//W3C//DTD SVG 1.1//EN" "http://www.w3.org/Graphics/SVG/1.1/DTD/svg11.dtd" ><svg xmlns="http://www.w3.org/2000/svg"><metadata></metadata><defs><font id="vernonadams: Holtwood One SC: 2011" horiz-adv-x="4833"><font-face font-family="Holtwood One SC" font-weight="400" font-stretch="normal" units-per-em="2048" panose-1="2 0 0 0 0 0 0 0 0 0" ascent="2457" descent="-876" x-height="0" bbox="-374 -1226 4777 2457" underline-thickness="102" underline-position="-154" unicode-range="U+0020-fb02" /><missing-glyph horiz-adv-x="748" d="M68 0 l0 1365 l544 0 l0 -1365 l-544 0 ZM136 68 l408 0 l0 1229 l-408 0 l0 -1229 Z" /><glyph glyph-name="space" unicode=" " d="" /><glyph glyph-name="exclam" unicode="!" d="M92 1137 l0 399 l769 0 l0 -399 l-128 -625 l-512 0 l-129 625 ZM157 384 l640 0 l0 -384 l-640 0 l0 384 Z" /><glyph glyph-name="quotedbl" unicode="&quot;" d="M842 1413 l-50 -505 l-216 0 l-50 505 l0 123 l316 0 l0 -123 ZM389 1413 l-50 -505 l-216 0 l-50 505 l0 123 l316 0 l0 -123 Z" /><glyph glyph-name="numbersign" unicode="#" d="M822 256 l-256 0 l-42 -256 l-384 0 l42 256 l-106 0 l0 384 l170 0 l43 256 l-158 0 l0 384 l222 0 l43 256 l384 0 l-43 -256 l256 0 l43 256 l384 0 l-43 -256 l98 0 l0 -384 l-162 0 l-43 -256 l153 0 l0 -384 l-217 0 l-42 -256 l-384 0 l42 256 ZM630 640 l256 0 l43 256 l-256 0 l-43 -256 Z" /><glyph glyph-name="dollar" unicode="$" d="M599 -36 q-100 6 -179.5 19 q-79.5 13 -142.5 30 q-63 17 -112.5 36 q-49.5 19 -89.5 38 l0 407 l301 0 q52 -72 117.5 -106 q65.5 -34 134.5 -34 q18 0 40 3 q22 3 41.5 17 q19.5 14 33 44 q13.5 30 13.5 84 q-86 8 -170.5 23 q-84.5 15 -161.5 41 q-77 26 -143.5 65.5 q-66.5 39.5 -115 95.5 q-48.5 56 -76 131.5 q-27.5 75.5 -27.5 174.5 q0 144 44.5 241.5 q44.5 97.5 119 159.5 q74.5 62 171.5 93 q97 31 202 42 l0 351 l320 0 l0 -353 q85 -9 153.5 -22.5 q68.5 -13.5 122.5 -29 q54 -15.5 95 -32.5 q41 -17 73 -33 l0 -407 l-301 0 q-51 72 -113.5 106 q-62.5 34 -128.5 34 q-18 0 -41 -4.5 q-23 -4.5 -43 -21 q-20 -16.5 -34 -48 q-14 -31.5 -14 -85.5 q175 -6 308 -38 q133 -32 221.5 -96.5 q88.5 -64.5 133.5 -165 q45 -100.5 45 -242.5 q0 -123 -38.5 -211 q-38.5 -88 -104 -148 q-65.5 -60 -152 -94.5 q-86.5 -34.5 -182.5 -50.5 l0 -363 l-320 0 l0 349 Z" /><glyph glyph-name="percent" unicode="%" d="M663 378 q-126 0 -236.5 34.5 q-110.5 34.5 -193 108 q-82.5 73.5 -130 189.5 q-47.5 116 -47.5 280 q0 158 47.5 269.5 q47.5 111.5 130 181.5 q82.5 70 193 102 q110.5 32 236.5 32 q125 0 236 -32 q111 -32 193.5 -102 q82.5 -70 130.5 -181.5 q48 -111.5 48 -269.5 q0 -164 -48 -280 q-48 -116 -130.5 -189.5 q-82.5 -73.5 -193 -108 q-110.5 -34.5 -236.5 -34.5 ZM1589 1536 l640 0 l-384 -1536 l-640 0 l384 1536 ZM663 1224 q-43 0 -73 -12.5 q-30 -12.5 -49 -32 q-19 -19.5 -29.5 -45 q-10.5 -25.5 -15 -51.5 q-4.5 -26 -5.5 -50.5 q-1 -24.5 -1 -42.5 q0 -18 1 -42.5 q1 -24.5 5.5 -51 q4.5 -26.5 15 -52 q10.5 -25.5 29.5 -46 q19 -20.5 49 -33 q30 -12.5 73 -12.5 q43 0 73 12.5 q30 12.5 49 33 q19 20.5 29.5 46 q10.5 25.5 15.5 52 q5 26.5 6 51 q1 24.5 1 42.5 q0 18 -1 42.5 q-1 24.5 -6 50.5 q-5 26 -15.5 51.5 q-10.5 25.5 -29.5 45 q-19 19.5 -49 32 q-30 12.5 -73 12.5 ZM2797 -42 q-126 0 -236.5 34.5 q-110.5 34.5 -193 108 q-82.5 73.5 -130 189.5 q-47.5 116 -47.5 280 q0 158 47.5 269.5 q47.5 111.5 130 181.5 q82.5 70 193 102 q110.5 32 236.5 32 q125 0 236 -32 q111 -32 193.5 -102 q82.5 -70 130.5 -181.5 q48 -111.5 48 -269.5 q0 -164 -48 -280 q-48 -116 -130.5 -189.5 q-82.5 -73.5 -193 -108 q-110.5 -34.5 -236.5 -34.5 ZM2797 804 q-43 0 -73 -12.5 q-30 -12.5 -49 -32 q-19 -19.5 -29.5 -45 q-10.5 -25.5 -15 -51.5 q-4.5 -26 -5.5 -50.5 q-1 -24.5 -1 -42.5 q0 -18 1 -42.5 q1 -24.5 5.5 -51 q4.5 -26.5 15 -52 q10.5 -25.5 29.5 -46 q19 -20.5 49 -33 q30 -12.5 73 -12.5 q43 0 73 12.5 q30 12.5 49 33 q19 20.5 29.5 46 q10.5 25.5 15.5 52 q5 26.5 6 51 q1 24.5 1 42.5 q0 18 -1 42.5 q-1 24.5 -6 50.5 q-5 26 -15.5 51.5 q-10.5 25.5 -29.5 45 q-19 19.5 -49 32 q-30 12.5 -73 12.5 Z" /><glyph glyph-name="ampersand" unicode="&amp;" d="M2339 361 q75 0 145 34 q70 34 127 106 l301 0 l0 -406 q-53 -22 -119 -44 q-66 -22 -149.5 -40 q-83.5 -18 -187 -29 q-103.5 -11 -232.5 -11 q-196 0 -334.5 47 q-138.5 47 -228.5 125 q-93 -56 -193.5 -90 q-100.5 -34 -202.5 -52 q-102 -18 -202 -24 q-100 -6 -192 -6 q-200 0 -348.5 44 q-148.5 44 -246.5 116 q-98 72 -146.5 165 q-48.5 93 -48.5 191 q0 78 13 135.5 q13 57.5 38.5 100 q25.5 42.5 64 72 q38.5 29.5 89.5 52.5 q-28 10 -60.5 31.5 q-32.5 21.5 -60 57 q-27.5 35.5 -46 87.5 q-18.5 52 -18.5 124 q0 44 10.5 80 q10.5 36 32 67.5 q21.5 31.5 53.5 61.5 q32 30 75 62 q87 64 217.5 102.5 q130.5 38.5 311.5 38.5 q147 0 283.5 -34 q136.5 -34 264.5 -92 l0 -320 l-301 0 q-8 37 -24.5 63 q-16.5 26 -39 42.5 q-22.5 16.5 -48 24.5 q-25.5 8 -51.5 8 q-31 0 -60.5 -10 q-29.5 -10 -52.5 -28.5 q-23 -18.5 -37 -44.5 q-14 -26 -14 -58 q0 -21 8 -42 q8 -21 24 -37 q16 -16 39.5 -26 q23.5 -10 53.5 -10 l658 0 l0 541 l640 0 l0 -540 l384 0 l0 -296 l-383 0 q-1 -20 -1 -39 q0 -19 0 -38 l0 -119 q0 -27 12.5 -52.5 q12.5 -25.5 37.5 -46 q25 -20.5 61 -32.5 q36 -12 84 -12 ZM1016 361 q87 0 162 9.5 q75 9.5 136 24.5 q61 15 109 32.5 q48 17.5 81 32.5 l0 239 l-658 0 q-30 0 -53.5 -13.5 q-23.5 -13.5 -39.5 -35 q-16 -21.5 -24 -49.5 q-8 -28 -8 -57 q0 -35 18.5 -67.5 q18.5 -32.5 55 -58.5 q36.5 -26 92 -41.5 q55.5 -15.5 129.5 -15.5 Z" /><glyph glyph-name="quotesingle" unicode="&#39;" d="M389 1413 l-50 -505 l-216 0 l-50 505 l0 123 l316 0 l0 -123 Z" /><glyph glyph-name="parenleft" unicode="(" d="M42 768 q0 101 20.5 200 q20.5 99 62 189 q41.5 90 103.5 167 q62 77 144.5 133 q82.5 56 185.5 88 q103 32 227 32 q48 0 96 -4.5 q48 -4.5 102 -15.5 l0 -352 q-69 -2 -120.5 -23.5 q-51.5 -21.5 -88.5 -56.5 q-37 -35 -61 -79.5 q-24 -44.5 -38 -92.5 q-14 -48 -19.5 -96 q-5.5 -48 -5.5 -89 q0 -41 5.5 -89 q5.5 -48 19.5 -96 q14 -48 38 -93 q24 -45 61 -80 q37 -35 88.5 -56.5 q51.5 -21.5 120.5 -22.5 l0 -352 q-54 -11 -102 -15.5 q-48 -4.5 -96 -4.5 q-124 0 -227 32 q-103 32 -185.5 88 q-82.5 56 -144.5 133 q-62 77 -103.5 167 q-41.5 90 -62 189 q-20.5 99 -20.5 200 Z" /><glyph glyph-name="parenright" unicode=")" d="M1013 768 q0 -101 -20.5 -200 q-20.5 -99 -62 -189 q-41.5 -90 -103.5 -167 q-62 -77 -144.5 -133 q-82.5 -56 -185.5 -88 q-103 -32 -227 -32 q-48 0 -96 4.5 q-48 4.5 -102 15.5 l0 352 q69 2 120.5 23.5 q51.5 21.5 88.5 56.5 q37 35 61 79.5 q24 44.5 38 92.5 q14 48 19.5 95.5 q5.5 47.5 5.5 89.5 q0 41 -5.5 89 q-5.5 48 -19.5 96 q-14 48 -38 92.5 q-24 44.5 -61 79.5 q-37 35 -88.5 56.5 q-51.5 21.5 -120.5 23.5 l0 352 q54 11 102 15.5 q48 4.5 96 4.5 q124 0 227 -32 q103 -32 185.5 -88 q82.5 -56 144.5 -133 q62 -77 103.5 -167 q41.5 -90 62 -189 q20.5 -99 20.5 -200 Z" /><glyph glyph-name="asterisk" unicode="*" d="M805 349 l-318 0 l0 125 l20 178 l-128 -124 l-97 -76 l-196 248 l97 76 l255 164 l-260 156 l-98 74 l188 253 l99 -73 l146 -133 l-18 197 l0 123 l318 0 l0 -125 l-21 -178 l129 124 l97 76 l196 -248 l-97 -76 l-257 -163 l262 -157 l98 -74 l-188 -253 l-99 73 l-147 132 l19 -196 l0 -123 Z" /><glyph glyph-name="plus" unicode="+" d="M58 896 l384 0 l0 384 l256 0 l0 -384 l384 0 l0 -256 l-384 0 l0 -384 l-256 0 l0 384 l-384 0 l0 256 Z" /><glyph glyph-name="comma" unicode="," d="M104 512 l640 0 l0 -511 q0 -127 -44 -213.5 q-44 -86.5 -116 -140 q-72 -53.5 -164 -76.5 q-92 -23 -188 -23 l0 324 q19 1 41 7 q22 6 41 20 q19 14 32 38.5 q13 24.5 13 62.5 l-255 0 l0 512 Z" /><glyph glyph-name="hyphen" unicode="-" d="M623 896 l0 -256 l-512 0 l0 256 l512 0 Z" /><glyph glyph-name="period" unicode="." d="M103 512 l640 0 l0 -512 l-640 0 l0 512 Z" /><glyph glyph-name="slash" unicode="/" d="M440 1536 l640 0 l-384 -1536 l-640 0 l384 1536 Z" /><glyph glyph-name="zero" unicode="0" d="M898 -29 q-114 0 -220 20 q-106 20 -199 61.5 q-93 41.5 -169.5 107 q-76.5 65.5 -131.5 156 q-55 90.5 -85 207.5 q-30 117 -30 263 q0 199 64 344.5 q64 145.5 176 240.5 q112 95 264.5 141.5 q152.5 46.5 330.5 46.5 q114 0 220.5 -19 q106.5 -19 199.5 -59.5 q93 -40.5 169.5 -102.5 q76.5 -62 131.5 -148 q55 -86 85 -196.5 q30 -110.5 30 -247.5 q0 -216 -65.5 -370.5 q-65.5 -154.5 -179 -253.5 q-113.5 -99 -266 -145 q-152.5 -46 -325.5 -46 ZM898 1102 q-49 0 -82.5 -16.5 q-33.5 -16.5 -55 -43.5 q-21.5 -27 -33 -61 q-11.5 -34 -17 -69 q-5.5 -35 -6.5 -68 q-1 -33 -1 -58 q0 -25 1 -58 q1 -33 6.5 -68.5 q5.5 -35.5 17 -70.5 q11.5 -35 33 -62.5 q21.5 -27.5 55 -44.5 q33.5 -17 82.5 -17 q49 0 82.5 17 q33.5 17 55 44.5 q21.5 27.5 33.5 62.5 q12 35 17.5 70.5 q5.5 35.5 6.5 68.5 q1 33 1 58 q0 25 -1 58 q-1 33 -6.5 68 q-5.5 35 -17.5 69 q-12 34 -33.5 61 q-21.5 27 -55 43.5 q-33.5 16.5 -82.5 16.5 Z" /><glyph glyph-name="one" unicode="1" d="M98 1458 l768 78 l0 -1112 l128 -25 l0 -399 l-896 0 l0 399 l128 25 l0 600 l-128 0 l0 434 Z" /><glyph glyph-name="two" unicode="2" d="M92 515 q33 12 93.5 30 q60.5 18 133 44 q72.5 26 147.5 60 q75 34 136 78 q61 44 100 98.5 q39 54.5 39 120.5 q0 43 -13.5 74.5 q-13.5 31.5 -36.5 52 q-23 20.5 -53.5 30.5 q-30.5 10 -64.5 10 q-48 0 -97.5 -36.5 q-49.5 -36.5 -82.5 -103.5 l-301 0 l0 460 q40 21 92.5 43.5 q52.5 22.5 120.5 41 q68 18.5 154.5 30 q86.5 11.5 194.5 11.5 q162 0 296 -34.5 q134 -34.5 230 -102 q96 -67.5 148.5 -167.5 q52.5 -100 52.5 -231 q0 -89 -25 -161 q-25 -72 -65.5 -130.5 q-40.5 -58.5 -92.5 -103.5 q-52 -45 -106 -79 q-123 -79 -288 -121 l568 0 l0 -429 l-1280 0 l0 515 Z" /><glyph glyph-name="three" unicode="3" d="M668 361 q48 0 84 12 q36 12 61 32.5 q25 20.5 37.5 46 q12.5 25.5 12.5 52.5 q0 21 -8 42 q-8 21 -24 37 q-16 16 -39.5 26 q-23.5 10 -53.5 10 l-259 0 l0 296 l259 0 q30 0 53.5 10 q23.5 10 39.5 26 q16 16 24 37 q8 21 8 42 q0 27 -12.5 52.5 q-12.5 25.5 -37.5 46 q-25 20.5 -61 32.5 q-36 12 -84 12 q-75 0 -145 -34 q-70 -34 -127 -106 l-301 0 l0 400 q41 17 87 33 q46 16 98 30 q91 24 215.5 43.5 q124.5 19.5 287.5 19.5 q181 0 316 -42.5 q135 -42.5 225 -111.5 q90 -69 134.5 -157.5 q44.5 -88.5 44.5 -180.5 q0 -72 -19 -124 q-19 -52 -46.5 -87.5 q-27.5 -35.5 -60 -57 q-32.5 -21.5 -59.5 -31.5 q28 -12 60 -34.5 q32 -22.5 60 -58.5 q28 -36 46.5 -87 q18.5 -51 18.5 -120 q0 -94 -44.5 -183 q-44.5 -89 -134 -158.5 q-89.5 -69.5 -225 -112 q-135.5 -42.5 -316.5 -42.5 q-129 0 -232.5 11 q-103.5 11 -187 29 q-83.5 18 -149.5 40 q-66 22 -119 44 l0 406 l301 0 q57 -72 127 -106 q70 -34 145 -34 Z" /><glyph glyph-name="four" unicode="4" d="M18 848 l640 688 l640 40 l0 -728 l320 0 l0 -256 l-320 0 l0 -168 l128 -25 l0 -399 l-896 0 l0 399 l128 25 l0 168 l-640 0 l0 256 ZM386 848 l272 0 l0 320 l-272 -320 Z" /><glyph glyph-name="five" unicode="5" d="M648 333 q47 0 84 6 q37 6 62.5 24 q25.5 18 39 52 q13.5 34 13.5 91 q0 49 -16 82.5 q-16 33.5 -44.5 53.5 q-28.5 20 -67.5 28.5 q-39 8.5 -85 8.5 q-48 0 -101 -3.5 q-53 -3.5 -108 -10 q-55 -6.5 -109 -14.5 q-54 -8 -103 -17 l-126 104 l0 798 l1222 0 l0 -473 l-301 0 q-57 51 -127 75 q-70 24 -145 24 l-158 0 l-15 -235 q54 23 111.5 34 q57.5 11 111.5 11 q81 0 159.5 -11.5 q78.5 -11.5 149 -36 q70.5 -24.5 129.5 -61.5 q59 -37 102 -87.5 q43 -50.5 67 -115.5 q24 -65 24 -144 q0 -96 -27 -174 q-27 -78 -75.5 -138.5 q-48.5 -60.5 -115.5 -104.5 q-67 -44 -147 -72.5 q-80 -28.5 -170.5 -42 q-90.5 -13.5 -185.5 -13.5 q-77 0 -156.5 8.5 q-79.5 8.5 -157.5 24 q-78 15.5 -152.5 39 q-74.5 23.5 -142.5 53.5 l0 377 l299 0 q57 -72 122 -106 q65 -34 140 -34 Z" /><glyph glyph-name="six" unicode="6" d="M903 1173 q-50 -2 -83.5 -17.5 q-33.5 -15.5 -55.5 -46 q-22 -30.5 -33.5 -76 q-11.5 -45.5 -16.5 -108.5 q82 7 145 8.5 q63 1.5 111 1.5 q74 0 150.5 -8.5 q76.5 -8.5 148.5 -27.5 q72 -19 135.5 -50.5 q63.5 -31.5 111 -78.5 q47.5 -47 75 -109.5 q27.5 -62.5 27.5 -144.5 q0 -141 -47 -243.5 q-47 -102.5 -142.5 -169.5 q-95.5 -67 -240.5 -99.5 q-145 -32.5 -340 -32.5 q-199 0 -345.5 47 q-146.5 47 -243 144.5 q-96.5 97.5 -144 247.5 q-47.5 150 -47.5 357 q0 206 51 355.5 q51 149.5 153 246.5 q102 97 256 143.5 q154 46.5 360 46.5 q111 0 201 -12 q90 -12 162.5 -30 q72.5 -18 128 -40.5 q55.5 -22.5 96.5 -43.5 l0 -381 l-301 0 q-57 54 -127 87.5 q-70 33.5 -145 33.5 ZM883 650 q-111 0 -171 -16 q6 -85 19.5 -138.5 q13.5 -53.5 34 -84 q20.5 -30.5 47.5 -42 q27 -11.5 60 -11.5 q42 0 75 6 q33 6 55 23 q22 17 33.5 48 q11.5 31 11.5 81 q0 44 -11 70.5 q-11 26.5 -32 40.5 q-21 14 -52 18.5 q-31 4.5 -70 4.5 Z" /><glyph glyph-name="seven" unicode="7" d="M142 -1 q33 144 68.5 270 q35.5 126 71.5 234.5 q36 108.5 71 198.5 q35 90 67 162 q75 170 146 288 q-62 0 -116 -11.5 q-54 -11.5 -100 -30 q-46 -18.5 -84 -41.5 q-38 -23 -67 -45 l-167 0 l0 512 l1152 0 l0 -384 q-43 -101 -90.5 -220 q-47.5 -119 -96.5 -261 q-49 -142 -99 -309 q-50 -167 -97 -363 l-659 0 Z" /><glyph glyph-name="eight" unicode="8" d="M1481 1130 q0 -109 -61 -194 q-61 -85 -167 -148 q63 -30 114.5 -67.5 q51.5 -37.5 88 -82 q36.5 -44.5 56 -95 q19.5 -50.5 19.5 -107.5 q0 -118 -45 -205.5 q-45 -87.5 -138 -145 q-93 -57.5 -235 -86 q-142 -28.5 -335 -28.5 q-185 0 -320 30.5 q-135 30.5 -223 89.5 q-88 59 -131 145.5 q-43 86.5 -43 199.5 q0 57 19.5 107.5 q19.5 50.5 55.5 95 q36 44.5 87.5 82 q51.5 37.5 114.5 67.5 q-106 63 -166.5 148 q-60.5 85 -60.5 194 q0 103 40 183 q40 80 124 134.5 q84 54.5 213 83 q129 28.5 308 28.5 q179 0 308.5 -28.5 q129.5 -28.5 213 -83.5 q83.5 -55 123.5 -135 q40 -80 40 -182 ZM796 923 q39 0 70 5.5 q31 5.5 52 20.5 q21 15 32 41.5 q11 26.5 11 69.5 q0 46 -10.5 75.5 q-10.5 29.5 -31.5 46 q-21 16.5 -52 22.5 q-31 6 -71 6 q-41 0 -71.5 -6 q-30.5 -6 -51.5 -22.5 q-21 -16.5 -31.5 -46 q-10.5 -29.5 -10.5 -75.5 q0 -43 11 -69.5 q11 -26.5 32 -41.5 q21 -15 52 -20.5 q31 -5.5 70 -5.5 ZM796 652 q-44 0 -78.5 -6.5 q-34.5 -6.5 -58 -25.5 q-23.5 -19 -36 -52.5 q-12.5 -33.5 -12.5 -87.5 q0 -46 12 -74 q12 -28 35.5 -43.5 q23.5 -15.5 58 -20.5 q34.5 -5 79.5 -5 q45 0 79.5 5 q34.5 5 58 20.5 q23.5 15.5 35.5 43.5 q12 28 12 74 q0 54 -12.5 87.5 q-12.5 33.5 -36 52.5 q-23.5 19 -58 25.5 q-34.5 6.5 -78.5 6.5 Z" /><glyph glyph-name="nine" unicode="9" d="M756 363 q43 0 76 11 q33 11 56.5 41 q23.5 30 37.5 82 q14 52 19 133 q-66 -14 -130 -17 q-64 -3 -130 -3 q-105 0 -191 14.5 q-86 14.5 -152.5 36 q-66.5 21.5 -113 47 q-46.5 25.5 -70.5 46.5 q-54 48 -85.5 110.5 q-31.5 62.5 -31.5 155.5 q0 277 191.5 408 q191.5 131 578.5 131 q197 0 343.5 -46.5 q146.5 -46.5 243.5 -143.5 q97 -97 145 -246 q48 -149 48 -354 q0 -206 -50 -356.5 q-50 -150.5 -151.5 -248.5 q-101.5 -98 -256 -145.5 q-154.5 -47.5 -362.5 -47.5 q-141 0 -246.5 19.5 q-105.5 19.5 -183.5 43.5 q-45 14 -84 28.5 q-39 14.5 -74 34.5 l0 406 l301 0 q57 -72 127 -106 q70 -34 145 -34 ZM776 894 q110 0 171 16 q-6 82 -17.5 139 q-11.5 57 -30 92 q-18.5 35 -46.5 50.5 q-28 15.5 -67 15.5 q-45 0 -78 -5 q-33 -5 -54.5 -24 q-21.5 -19 -32 -56.5 q-10.5 -37.5 -10.5 -101.5 q0 -41 11 -65.5 q11 -24.5 32 -38 q21 -13.5 52 -18 q31 -4.5 70 -4.5 Z" /><glyph glyph-name="colon" unicode=":" d="M145 1408 l640 0 l0 -512 l-640 0 l0 512 ZM145 512 l640 0 l0 -512 l-640 0 l0 512 Z" /><glyph glyph-name="semicolon" unicode=";" d="M105 1408 l640 0 l0 -512 l-640 0 l0 512 ZM109 512 l640 0 l0 -511 q0 -127 -44 -213.5 q-44 -86.5 -116 -140 q-72 -53.5 -164 -76.5 q-92 -23 -188 -23 l0 324 q19 1 41 7 q22 6 41 20 q19 14 32 38.5 q13 24.5 13 62.5 l-255 0 l0 512 Z" /><glyph glyph-name="less" unicode="&lt;" d="M523 627 l544 -163 l0 -481 l-993 374 l0 690 l993 374 l0 -632 l-544 -162 Z" /><glyph glyph-name="equal" unicode="=" d="M814 896 l0 -256 l-698 0 l0 256 l698 0 ZM814 428 l0 -256 l-698 0 l0 256 l698 0 Z" /><glyph glyph-name="greater" unicode="&gt;" d="M93 789 l0 632 l993 -374 l0 -690 l-993 -374 l0 481 l544 163 l-544 162 Z" /><glyph glyph-name="question" unicode="?" d="M706 1087 q0 31 -10.5 54.5 q-10.5 23.5 -28 39.5 q-17.5 16 -41 24.5 q-23.5 8.5 -48.5 8.5 q-57 0 -113 -26.5 q-56 -26.5 -99 -83.5 l-301 0 l0 346 q34 17 73 33 q39 16 84 30 q78 24 185.5 43.5 q107.5 19.5 249.5 19.5 q157 0 284.5 -28.5 q127.5 -28.5 217.5 -88.5 q90 -60 139 -152.5 q49 -92.5 49 -219.5 q0 -110 -35.5 -187.5 q-35.5 -77.5 -97 -130.5 q-61.5 -53 -143.5 -86 q-82 -33 -176 -54 l0 -117 l-637 0 q-1 -1 -3 -1 l0 345 q16 7 55.5 17.5 q39.5 10.5 89.5 24.5 q50 14 104.5 32.5 q54.5 18.5 99 41.5 q44.5 23 73.5 51.5 q29 28.5 29 63.5 ZM255 383 l640 0 l0 -384 l-640 0 l0 384 Z" /><glyph glyph-name="at" unicode="@" d="M1813 811 q0 -94 -22.5 -179 q-22.5 -85 -73 -149 q-50.5 -64 -130 -102 q-79.5 -38 -193.5 -38 q-42 0 -88 9 q-46 9 -87.5 25 q-41.5 16 -74.5 37.5 q-33 21.5 -50 47.5 q-72 -57 -145.5 -80 q-73.5 -23 -142.5 -23 q-66 0 -124.5 32 q-58.5 32 -102 86 q-43.5 54 -68.5 124 q-25 70 -25 145 q0 117 32.5 203 q32.5 86 90.5 143 q58 57 138.5 85 q80.5 28 177.5 28 q42 0 89.5 -5.5 q47.5 -5.5 98 -17 q50.5 -11.5 102 -27.5 q51.5 -16 101.5 -37 l0 -519 q0 -31 30 -48.5 q30 -17.5 72 -17.5 q21 0 44 15.5 q23 15.5 42 49 q19 33.5 31 86.5 q12 53 12 128 q0 110 -50.5 207 q-50.5 97 -138 169 q-87.5 72 -205.5 114 q-118 42 -252 42 q-77 0 -149 -21 q-72 -21 -135 -59.5 q-63 -38.5 -114.5 -92 q-51.5 -53.5 -88 -118.5 q-36.5 -65 -57 -140 q-20.5 -75 -20.5 -155 q0 -143 54.5 -247.5 q54.5 -104.5 144.5 -173.5 q90 -69 205 -102.5 q115 -33.5 237 -33.5 q137 0 272.5 20 q135.5 20 256.5 60 l0 -249 q-128 -36 -261.5 -54 q-133.5 -18 -268.5 -18 q-116 0 -228 23 q-112 23 -213 68.5 q-101 45.5 -187 113 q-86 67.5 -148.5 156 q-62.5 88.5 -97.5 197.5 q-35 109 -35 239 q0 113 30 217.5 q30 104.5 84 195.5 q54 91 130 166 q76 75 168.5 128 q92.5 53 198.5 82.5 q106 29.5 221 29.5 q126 0 243 -27.5 q117 -27.5 218.5 -77.5 q101.5 -50 184.5 -120 q83 -70 142.5 -155 q59.5 -85 92 -182.5 q32.5 -97.5 32.5 -202.5 ZM1040 1014 q-22 3 -45.5 4.5 q-23.5 1.5 -43.5 1.5 q-97 0 -142.5 -53 q-45.5 -53 -45.5 -171 q0 -51 8 -94.5 q8 -43.5 26 -75.5 q18 -32 46 -50.5 q28 -18.5 69 -18.5 q27 0 58.5 8.5 q31.5 8.5 69.5 28.5 l0 420 Z" /><glyph glyph-name="A" unicode="a" d="M1151 0 l-54 258 l-418 0 l-53 -258 l-569 0 l0 504 l123 25 l295 1007 l826 0 l296 -1007 l123 -25 l0 -504 l-569 0 ZM765 601 l246 0 l-123 579 l-123 -579 Z" /><glyph glyph-name="B" unicode="b" d="M1371 1536 q158 -38 235.5 -125 q77.5 -87 77.5 -234 q0 -98 -21 -164.5 q-21 -66.5 -53 -110 q-32 -43.5 -69.5 -67 q-37.5 -23.5 -69.5 -34.5 q-32 -11 -54.5 -13 q-22.5 -2 -23.5 -2 q39 -2 83.5 -9 q44.5 -7 88.5 -22 q44 -15 84 -39 q40 -24 70.5 -59.5 q30.5 -35.5 48.5 -84.5 q18 -49 18 -113 q0 -98 -24.5 -182 q-24.5 -84 -86 -145.5 q-61.5 -61.5 -167.5 -96.5 q-106 -35 -268 -35 l-1161 0 l0 434 l128 25 l0 655 l-128 25 l0 397 l1292 0 ZM1146 1044 q0 51 -17.5 78.5 q-17.5 27.5 -46.5 40.5 q-29 13 -66 15 q-37 2 -75 2 l-94 0 l0 -287 l94 0 q38 0 75 2.5 q37 2.5 66 16.5 q29 14 46.5 44.5 q17.5 30.5 17.5 87.5 ZM1146 545 q0 51 -17.5 78 q-17.5 27 -46.5 40 q-29 13 -66 15 q-37 2 -75 2 l-94 0 l0 -287 l94 0 q38 0 75 2.5 q37 2.5 66 16.5 q29 14 46.5 45 q17.5 31 17.5 88 Z" /><glyph glyph-name="C" unicode="c" d="M706 786 q0 -86 22 -148 q22 -62 64.5 -102 q42.5 -40 104 -59 q61.5 -19 140.5 -19 q94 0 222 23 q128 23 283 71 l0 -468 q-161 -54 -313.5 -78 q-152.5 -24 -300.5 -24 q-181 0 -338.5 45 q-157.5 45 -274 145.5 q-116.5 100.5 -183.5 253.5 q-67 153 -67 360 q0 202 61.5 348 q61.5 146 174 240.5 q112.5 94.5 270 139.5 q157.5 45 349.5 45 q118 0 212.5 -12 q94.5 -12 170.5 -30 q76 -18 134.5 -40.5 q58.5 -22.5 104.5 -43.5 l0 -460 l-301 0 q-51 72 -113.5 106 q-62.5 34 -128.5 34 q-56 0 -108.5 -22 q-52.5 -22 -93.5 -64 q-41 -42 -66 -102.5 q-25 -60.5 -25 -138.5 Z" /><glyph glyph-name="D" unicode="d" d="M1264 1536 q145 -31 261 -89.5 q116 -58.5 197.5 -149.5 q81.5 -91 125 -217.5 q43.5 -126.5 43.5 -293.5 q0 -221 -74 -371.5 q-74 -150.5 -208.5 -242.5 q-134.5 -92 -323.5 -132 q-189 -40 -418 -40 l-768 0 l0 434 l128 25 l0 655 l-128 25 l0 397 l1165 0 ZM965 459 q107 0 165 23.5 q58 23.5 84.5 66.5 q26.5 43 31 103 q4.5 60 4.5 134 q0 74 -4.5 134.5 q-4.5 60.5 -31 103.5 q-26.5 43 -84.5 66.5 q-58 23.5 -165 23.5 l-98 0 l0 -655 l98 0 Z" /><glyph glyph-name="E" unicode="e" d="M870 384 q68 0 128 11.5 q60 11.5 110.5 29.5 q50.5 18 91.5 41 q41 23 72 46 l167 0 l0 -512 l-1337 0 l0 434 l128 25 l0 616 l-128 25 l0 436 l1337 0 l0 -512 l-161 0 q-32 22 -74 45 q-42 23 -93.5 41.5 q-51.5 18.5 -111.5 30 q-60 11.5 -129 11.5 l0 -273 l300 65 l0 -354 l-300 65 l0 -271 Z" /><glyph glyph-name="F" unicode="f" d="M870 879 l272 65 l0 -354 l-272 65 l0 -196 l128 -29 l0 -430 l-896 0 l0 434 l128 25 l0 616 l-128 25 l0 436 l1237 0 l0 -512 l-168 0 q-24 22 -54.5 45 q-30.5 23 -68 41.5 q-37.5 18.5 -82 30 q-44.5 11.5 -96.5 11.5 l0 -273 Z" /><glyph glyph-name="G" unicode="g" d="M65 786 q0 209 60.5 353 q60.5 144 172.5 236 q107 88 251 136 q144 48 331 48 q129 0 229 -11 q100 -11 178.5 -29 q78.5 -18 140 -41 q61.5 -23 114.5 -48 l0 -457 l-301 0 q-51 72 -113.5 106 q-62.5 34 -128.5 34 q-56 0 -108.5 -22 q-52.5 -22 -93.5 -64 q-41 -42 -66 -102.5 q-25 -60.5 -25 -138.5 q0 -173 78.5 -253 q78.5 -80 223.5 -80 q36 0 72.5 4 q36.5 4 73.5 12 l0 121 l-192 0 l0 274 l622 0 l0 -730 q-79 -33 -167.5 -62.5 q-88.5 -29.5 -177 -51 q-88.5 -21.5 -173.5 -30 q-85 -8.5 -157 -8.5 q-118 0 -226 17 q-108 17 -201.5 61 q-93.5 44 -170.5 110.5 q-77 66.5 -131.5 157 q-54.5 90.5 -84.5 205 q-30 114.5 -30 253.5 Z" /><glyph glyph-name="H" unicode="h" d="M102 1536 l896 0 l0 -436 l-128 -25 l0 -189 l512 0 l0 189 l-128 25 l0 436 l896 0 l0 -436 l-128 -25 l0 -616 l128 -25 l0 -434 l-896 0 l0 434 l128 25 l0 201 l-512 0 l0 -201 l128 -25 l0 -434 l-896 0 l0 434 l128 25 l0 616 l-128 25 l0 436 Z" /><glyph glyph-name="I" unicode="i" d="M102 1536 l896 0 l0 -434 l-128 -25 l0 -618 l128 -25 l0 -434 l-896 0 l0 434 l128 25 l0 618 l-128 25 l0 434 Z" /><glyph glyph-name="J" unicode="j" d="M1310 640 q0 -174 -51 -299.5 q-51 -125.5 -144 -207.5 q-93 -82 -223 -116.5 q-130 -34.5 -289 -34.5 q-138 0 -241.5 15 q-103.5 15 -178.5 39 q-86 26 -152 63 l0 464 l301 0 q38 -72 89.5 -106 q51.5 -34 102.5 -34 q27 0 53.5 14 q26.5 14 47 41.5 q20.5 27.5 33 68 q12.5 40.5 12.5 93.5 l0 437 l-128 25 l0 434 l896 0 l0 -434 l-128 -25 l0 -437 Z" /><glyph glyph-name="K" unicode="k" d="M1946 1290 q-48 -35 -94 -75 q-46 -40 -88 -82 q-42 -42 -79.5 -84 q-37.5 -42 -68.5 -81 q-38 -46 -72 -91 q-34 -45 -65 -91 q42 -58 83.5 -112.5 q41.5 -54.5 83.5 -108.5 q35 -45 73.5 -92.5 q38.5 -47.5 77.5 -92.5 q39 -45 76.5 -84.5 q37.5 -39.5 70.5 -68.5 l1 -227 l-792 0 l-283 641 l0 -641 l-768 0 l0 434 l128 25 l0 618 l-128 25 l0 434 l768 0 l0 -616 l283 616 l792 0 l1 -246 Z" /><glyph glyph-name="L" unicode="l" d="M870 384 q48 0 90 11.5 q42 11.5 78 29.5 q36 18 65.5 41 q29.5 23 51.5 46 l167 0 l0 -512 l-1220 0 l0 434 l128 25 l0 618 l-128 25 l0 434 l896 0 l0 -434 l-128 -25 l0 -693 Z" /><glyph glyph-name="M" unicode="m" d="M869 749 l0 -749 l-767 0 l0 434 l128 25 l0 618 l-128 25 l0 434 l767 0 l322 -590 l319 590 l768 0 l0 -434 l-128 -25 l0 -618 l128 -25 l0 -434 l-768 0 l0 749 l-319 -552 l-322 552 Z" /><glyph glyph-name="N" unicode="n" d="M614 749 l0 -290 l128 -24 l0 -435 l-640 0 l0 434 l128 25 l0 618 l-128 25 l0 434 l768 0 l512 -787 l0 326 l-128 27 l0 434 l640 0 l0 -434 l-128 -25 l0 -618 l128 -25 l0 -434 l-769 0 l-511 749 Z" /><glyph glyph-name="O" unicode="o" d="M959 -18 q-122 0 -235.5 15 q-113.5 15 -213 56 q-99.5 41 -181.5 105.5 q-82 64.5 -141 155 q-59 90.5 -91.5 208 q-32.5 117.5 -32.5 264.5 q0 138 32 249 q32 111 90 197 q58 86 139.5 148 q81.5 62 181 101.5 q99.5 39.5 214 58.5 q114.5 19 238.5 19 q124 0 239 -19 q115 -19 215 -59 q100 -40 181.5 -102 q81.5 -62 139.5 -148 q58 -86 90 -196.5 q32 -110.5 32 -248.5 q0 -216 -70.5 -370.5 q-70.5 -154.5 -192.5 -252.5 q-122 -98 -285 -139.5 q-163 -41.5 -349 -41.5 ZM959 1102 q-64 0 -107.5 -16.5 q-43.5 -16.5 -72 -43.5 q-28.5 -27 -43.5 -61 q-15 -34 -22.5 -69 q-7.5 -35 -8.5 -68 q-1 -33 -1 -58 q0 -25 1 -58 q1 -33 8.5 -68.5 q7.5 -35.5 22.5 -70.5 q15 -35 43.5 -62.5 q28.5 -27.5 72 -44.5 q43.5 -17 107.5 -17 q64 0 107.5 17 q43.5 17 72.5 44.5 q29 27.5 44.5 62.5 q15.5 35 22.5 70.5 q7 35.5 8.5 68.5 q1.5 33 1.5 58 q0 25 -1.5 58 q-1.5 33 -8.5 68 q-7 35 -22.5 69 q-15.5 34 -44.5 61 q-29 27 -72.5 43.5 q-43.5 16.5 -107.5 16.5 Z" /><glyph glyph-name="P" unicode="p" d="M102 1536 l871 0 q170 0 295 -15.5 q125 -15.5 213 -44.5 q88 -29 143.5 -71 q55.5 -42 87 -94 q31.5 -52 43 -114 q11.5 -62 11.5 -132 q0 -72 -13.5 -135 q-13.5 -63 -49.5 -115.5 q-36 -52.5 -99.5 -94.5 q-63.5 -42 -163 -70.5 q-99.5 -28.5 -240 -44 q-140.5 -15.5 -330.5 -15.5 l0 -131 l128 -25 l0 -434 l-896 0 l0 434 l128 25 l0 618 l-128 25 l0 434 ZM870 865 q58 0 105.5 6 q47.5 6 81 25.5 q33.5 19.5 51.5 56.5 q18 37 18 100 q0 61 -18 97.5 q-18 36.5 -51.5 55.5 q-33.5 19 -81 25 q-47.5 6 -105.5 6 l0 -372 Z" /><glyph glyph-name="Q" unicode="q" d="M898 -459 q-29 32 -60.5 75 q-31.5 43 -63 98.5 q-31.5 55.5 -61 124.5 q-29.5 69 -52.5 154 q-131 31 -240.5 93.5 q-109.5 62.5 -188 160 q-78.5 97.5 -122.5 231.5 q-44 134 -44 308 q0 138 32 249.5 q32 111.5 90.5 197.5 q58.5 86 140.5 147.5 q82 61.5 181.5 101 q99.5 39.5 213.5 58.5 q114 19 237 19 q123 0 237 -19 q114 -19 213.5 -58.5 q99.5 -39.5 182 -101.5 q82.5 -62 141 -148 q58.5 -86 91 -197 q32.5 -111 32.5 -249 q0 -165 -39.5 -294 q-39.5 -129 -111.5 -225 q-72 -96 -172 -160 q-100 -64 -220 -100 q48 -60 96 -116.5 q48 -56.5 83 -98.5 l0 -251 l-596 0 ZM961 1102 q-64 0 -107.5 -16.5 q-43.5 -16.5 -72 -43.5 q-28.5 -27 -43.5 -61 q-15 -34 -22.5 -69 q-7.5 -35 -8.5 -68 q-1 -33 -1 -58 q0 -25 1 -58 q1 -33 8.5 -68.5 q7.5 -35.5 22.5 -70.5 q15 -35 43.5 -62.5 q28.5 -27.5 72 -44.5 q43.5 -17 107.5 -17 q64 0 107.5 17 q43.5 17 72.5 44.5 q29 27.5 44.5 62.5 q15.5 35 22.5 70.5 q7 35.5 8.5 68.5 q1.5 33 1.5 58 q0 25 -1.5 58 q-1.5 33 -8.5 68 q-7 35 -22.5 69 q-15.5 34 -44.5 61 q-29 27 -72.5 43.5 q-43.5 16.5 -107.5 16.5 Z" /><glyph glyph-name="R" unicode="r" d="M1765 0 l-636 0 q-30 57 -62 121 q-32 64 -62 133 q-30 69 -56 143 q-26 74 -44 152 l-35 0 l0 -549 l-768 0 l0 434 l128 25 l0 618 l-128 25 l0 434 l871 0 q173 0 299 -16 q126 -16 214 -45.5 q88 -29.5 142.5 -72 q54.5 -42.5 85 -96 q30.5 -53.5 41 -117 q10.5 -63.5 10.5 -134.5 q0 -72 -13.5 -130.5 q-13.5 -58.5 -47.5 -107.5 q-34 -49 -93 -89.5 q-59 -40.5 -150 -76.5 q19 -40 57 -93.5 q38 -53.5 82 -109 q44 -55.5 88.5 -108 q44.5 -52.5 76.5 -89.5 l0 -251 ZM870 844 q58 0 105.5 5 q47.5 5 81 23 q33.5 18 51.5 53 q18 35 18 94 q0 58 -18 92.5 q-18 34.5 -51.5 53.5 q-33.5 19 -81 25 q-47.5 6 -105.5 6 l0 -352 Z" /><glyph glyph-name="S" unicode="s" d="M1418 482 q-1 -99 -28.5 -175.5 q-27.5 -76.5 -76.5 -132 q-49 -55.5 -115 -94 q-66 -38.5 -142 -62 q-76 -23.5 -159.5 -30 q-83.5 -6.5 -167.5 -6.5 q-152 0 -267 12 q-66 8 -197 44 q-107 29 -168 61 l0 395 l301 0 q52 -72 117.5 -106 q65.5 -34 134.5 -34 q18 0 40 3 q22 3 41.5 17 q19.5 14 33 44 q13.5 30 13.5 84 q-86 8 -170.5 23 q-84.5 15 -161.5 41 q-77 26 -143.5 65.5 q-66.5 39.5 -115 95.5 q-48.5 56 -76 131.5 q-27.5 75.5 -27.5 174.5 q0 106 28 186.5 q28 80.5 76.5 139 q48.5 58.5 114 97 q65.5 38.5 141 61.5 q75.5 23 157 29 q81.5 6 162.5 6 q118 0 212.5 -8.5 q94.5 -8.5 170.5 -26.5 q76 -18 134.5 -40.5 q58.5 -22.5 104.5 -43.5 l0 -390 l-301 0 q-51 72 -113.5 106 q-62.5 34 -128.5 34 q-18 0 -41 -4.5 q-23 -4.5 -43 -21 q-20 -16.5 -34 -48 q-14 -31.5 -14 -85.5 q175 -6 308 -38 q133 -32 221.5 -96.5 q88.5 -64.5 133.5 -165 q45 -100.5 45 -242.5 Z" /><glyph glyph-name="T" unicode="t" d="M1444 1536 l0 -512 l-168 0 q-17 22 -39 45 q-22 23 -49 41.5 q-27 18.5 -59 30 q-32 11.5 -69 11.5 l0 -693 l128 -25 l0 -434 l-896 0 l0 434 l128 25 l0 693 q-37 0 -69 -11.5 q-32 -11.5 -59 -30 q-27 -18.5 -49 -41.5 q-22 -23 -39 -45 l-168 0 l0 512 l1408 0 Z" /><glyph glyph-name="U" unicode="u" d="M1758 1077 q-1 -32 -1 -62.5 q0 -30.5 0 -59.5 l0 -169 q0 -212 -57.5 -365.5 q-57.5 -153.5 -157 -253 q-99.5 -99.5 -232.5 -142.5 q-133 -43 -283 -43 q-117 0 -224.5 15.5 q-107.5 15.5 -200.5 58 q-93 42.5 -169 108 q-76 65.5 -130.5 156 q-54.5 90.5 -84 206.5 q-29.5 116 -29.5 260 l0 291 l-128 25 l0 434 l831 0 l0 -434 l-128 -25 l0 -129 q0 -25 0 -50.5 q0 -25.5 0.5 -47.5 q0.5 -22 0.5 -39 q0 -17 0 -25 q0 -25 1 -58 q1 -33 8.5 -68.5 q7.5 -35.5 22.5 -70.5 q15 -35 43.5 -62.5 q28.5 -27.5 72 -44.5 q43.5 -17 107.5 -17 q64 0 107.5 17 q43.5 17 72.5 44.5 q29 27.5 44.5 62.5 q15.5 35 22.5 70.5 q7 35.5 8.5 68.5 q1.5 33 1.5 58 q0 8 0 25 q0 17 -0.5 39 q-0.5 22 -0.5 47.5 q0 25.5 0 50.5 l0 129 l-128 25 l0 434 l738 0 l0 -434 l-128 -25 Z" /><glyph glyph-name="V" unicode="v" d="M576 -1 l-409 1079 l-152 24 l0 434 l934 0 l0 -434 l-110 -24 l173 -569 l173 569 l-110 24 l0 434 l773 0 l0 -434 l-151 -24 l-409 -1079 l-712 0 Z" /><glyph glyph-name="W" unicode="w" d="M577 -1 l-409 1079 l-152 24 l0 434 l971 0 l0 -434 l-110 -24 l173 -569 l173 569 l-110 24 l0 434 l971 0 l0 -434 l-110 -24 l173 -569 l173 569 l-110 24 l0 434 l736 0 l0 -434 l-151 -24 l-409 -1079 l-712 0 l-193 588 l-192 -588 l-712 0 Z" /><glyph glyph-name="X" unicode="x" d="M1825 458 l152 -24 l0 -434 l-1014 0 l0 434 l110 24 l-233 178 l-193 -178 l190 -24 l0 -434 l-773 0 l0 434 l151 24 l369 330 l-359 290 l-182 24 l0 434 l978 0 l0 -434 l-110 -24 l259 -188 l173 188 l-187 24 l0 434 l770 0 l0 -434 l-181 -24 l-299 -310 l379 -310 Z" /><glyph glyph-name="Y" unicode="y" d="M488 0 l0 432 l128 32 l-439 614 l-162 24 l0 434 l854 0 l0 -434 l-100 -24 l203 -314 l203 314 l-100 24 l0 434 l853 0 l0 -434 l-161 -24 l-439 -614 l128 -32 l0 -432 l-968 0 Z" /><glyph glyph-name="Z" unicode="z" d="M27 0 l0 384 l564 768 q-57 0 -107 -11.5 q-50 -11.5 -92.5 -30 q-42.5 -18.5 -77.5 -41.5 q-35 -23 -61 -45 l-168 0 l0 512 l1190 0 l0 -414 l-504 -720 q25 -3 49 -3 q47 0 89.5 10 q42.5 10 78.5 26.5 q36 16.5 66 36.5 q30 20 53 40 l168 0 l0 -512 l-1248 0 Z" /><glyph glyph-name="bracketleft" unicode="[" d="M139 1536 l1025 0 l0 -385 q-36 12 -78 24 q-42 12 -90.5 21.5 q-48.5 9.5 -103 16 q-54.5 6.5 -113.5 6.5 l0 -903 q119 0 216 22 q97 22 169 46 l0 -384 l-1025 0 l0 1536 Z" /><glyph glyph-name="backslash" unicode="\" d="M1077 0 l-640 0 l-384 1536 l640 0 l384 -1536 Z" /><glyph glyph-name="bracketright" unicode="]" d="M1103 0 l-1025 0 l0 384 q72 -24 168.5 -46 q96.5 -22 216.5 -22 l0 903 q-120 0 -216.5 -22 q-96.5 -22 -168.5 -46 l0 385 l1025 0 l0 -1536 Z" /><glyph glyph-name="asciicircum" unicode="^" d="M53 201 l409 1079 l590 0 l409 -1079 l-512 0 l-192 640 l-192 -640 l-512 0 Z" /><glyph glyph-name="underscore" unicode="_" d="M781 224 l0 -256 l-698 0 l0 256 l698 0 Z" /><glyph glyph-name="grave" unicode="`" d="M31 2304 l490 0 l339 -640 l-425 0 l-404 640 Z" /><glyph glyph-name="a" unicode="a" d="M1080 0 l-50 237 l-393 0 l-50 -237 l-535 0 l0 464 l116 23 l277 921 l776 0 l279 -921 l115 -23 l0 -464 l-535 0 ZM698 553 l271 0 l-136 553 l-135 -553 Z" /><glyph glyph-name="b" unicode="b" d="M1308 1408 q148 -35 221.5 -113 q73.5 -78 73.5 -212 q0 -90 -20 -152 q-20 -62 -50.5 -102 q-30.5 -40 -66 -61.5 q-35.5 -21.5 -66 -31.5 q-30.5 -10 -51 -11.5 q-20.5 -1.5 -20.5 -1.5 q36 -2 78 -8.5 q42 -6.5 83 -20 q41 -13.5 79 -35 q38 -21.5 66.5 -54.5 q28.5 -33 46 -78 q17.5 -45 17.5 -105 q0 -90 -23 -167.5 q-23 -77.5 -81.5 -134 q-58.5 -56.5 -157.5 -88.5 q-99 -32 -252 -32 l-1091 0 l0 399 l120 23 l0 603 l-120 23 l0 360 l1214 0 ZM1097 970 q0 51 -16.5 78.5 q-16.5 27.5 -44 40.5 q-27.5 13 -62 15 q-34.5 2 -70.5 2 l-88 0 l0 -284 l88 0 q36 0 70.5 2.5 q34.5 2.5 62 16 q27.5 13.5 44 43.5 q16.5 30 16.5 86 ZM1097 491 q0 51 -16.5 78 q-16.5 27 -44 40 q-27.5 13 -62 15 q-34.5 2 -70.5 2 l-88 0 l0 -284 l88 0 q36 0 70.5 2.5 q34.5 2.5 62 16.5 q27.5 14 44 44 q16.5 30 16.5 86 Z" /><glyph glyph-name="c" unicode="c" d="M664 723 q0 -159 81 -231.5 q81 -72.5 230 -72.5 q88 0 206.5 22 q118.5 22 267.5 67 l0 -435 q-300 -91 -577 -91 q-172 0 -320 40.5 q-148 40.5 -257 133.5 q-109 93 -171.5 234.5 q-62.5 141.5 -62.5 332.5 q0 189 57.5 325.5 q57.5 136.5 163 225 q105.5 88.5 253.5 130.5 q148 42 330 42 q111 0 200.5 -11 q89.5 -11 161 -28 q71.5 -17 126 -37.5 q54.5 -20.5 96.5 -39.5 l0 -435 l-283 0 q-48 66 -106 97.5 q-58 31.5 -121 31.5 q-52 0 -101.5 -20 q-49.5 -20 -88 -58.5 q-38.5 -38.5 -62 -94.5 q-23.5 -56 -23.5 -128 Z" /><glyph glyph-name="d" unicode="d" d="M1189 1408 q136 -29 245 -82 q109 -53 185.5 -135.5 q76.5 -82.5 117.5 -198 q41 -115.5 41 -269.5 q0 -135 -31.5 -241.5 q-31.5 -106.5 -90 -187 q-58.5 -80.5 -143.5 -136.5 q-85 -56 -191.5 -91 q-106.5 -35 -234 -51 q-127.5 -16 -271.5 -16 l-722 0 l0 399 l120 23 l0 603 l-120 23 l0 360 l1095 0 ZM908 422 q67 0 113 10 q46 10 75.5 28 q29.5 18 46 45 q16.5 27 24 60 q7.5 33 8.5 73 q1 40 1 85 q0 45 -1 85 q-1 40 -8.5 73.5 q-7.5 33.5 -24 60 q-16.5 26.5 -46 45 q-29.5 18.5 -75.5 28.5 q-46 10 -113 10 l-92 0 l0 -603 l92 0 Z" /><glyph glyph-name="e" unicode="e" d="M818 789 l277 59 l0 -285 l-277 60 l0 -221 q60 0 116 8.5 q56 8.5 104 23.5 q48 15 88 35 q40 20 69 43 l137 0 l0 -512 l-1236 0 l0 399 l120 23 l0 567 l-120 23 l0 396 l1236 0 l0 -512 l-137 0 q-29 22 -69 42 q-40 20 -88 35 q-48 15 -104 24 q-56 9 -116 9 l0 -217 Z" /><glyph glyph-name="f" unicode="f" d="M818 759 l256 59 l0 -305 l-256 60 l0 -151 l120 -26 l0 -396 l-842 0 l0 399 l120 23 l0 567 l-120 23 l0 396 l1163 0 l0 -512 l-167 0 q-43 45 -113 77.5 q-70 32.5 -161 32.5 l0 -247 Z" /><glyph glyph-name="g" unicode="g" d="M61 723 q0 188 57 324.5 q57 136.5 162 225 q105 88.5 253.5 131 q148.5 42.5 331.5 42.5 q111 0 200.5 -11 q89.5 -11 161 -28 q71.5 -17 126 -37.5 q54.5 -20.5 96.5 -39.5 l0 -435 l-283 0 q-23 33 -45.5 57.5 q-22.5 24.5 -48.5 40 q-26 15.5 -58 23.5 q-32 8 -75 8 q-52 0 -101.5 -15.5 q-49.5 -15.5 -88 -51 q-38.5 -35.5 -62 -93 q-23.5 -57.5 -23.5 -141.5 q0 -98 19 -160.5 q19 -62.5 55 -99 q36 -36.5 88.5 -50.5 q52.5 -14 120.5 -14 q36 0 74.5 5 q38.5 5 83.5 19 l0 114 l-201 0 l0 246 l585 0 l0 -664 q-74 -31 -157 -58 q-83 -27 -166.5 -47 q-83.5 -20 -163.5 -26 q-80 -6 -148 -6 q-167 0 -312 40 q-145 40 -252 133 q-107 93 -168 234.5 q-61 141.5 -61 333.5 Z" /><glyph glyph-name="h" unicode="h" d="M96 1408 l842 0 l0 -396 l-120 -23 l0 -165 l481 0 l0 165 l-120 23 l0 401 l842 0 l0 -401 l-120 -23 l0 -567 l120 -23 l0 -399 l-842 0 l0 399 l120 23 l0 167 l-481 0 l0 -167 l120 -23 l0 -399 l-842 0 l0 399 l120 23 l0 567 l-120 23 l0 396 Z" /><glyph glyph-name="i" unicode="i" d="M97 1408 l842 0 l0 -394 l-120 -23 l0 -569 l120 -23 l0 -399 l-842 0 l0 399 l120 23 l0 569 l-120 23 l0 394 Z" /><glyph glyph-name="j" unicode="j" d="M1232 589 q0 -160 -47 -276.5 q-47 -116.5 -134 -192.5 q-87 -76 -209.5 -107 q-122.5 -31 -273.5 -31 q-105 0 -188 5.5 q-83 5.5 -148 22.5 q-65 17 -115 37.5 q-50 20.5 -87 39.5 l0 431 l283 0 q36 -66 84 -97.5 q48 -31.5 96 -31.5 q25 0 50 13 q25 13 44.5 38.5 q19.5 25.5 31.5 62.5 q12 37 12 86 l0 402 l-121 23 l0 394 l843 0 l0 -394 l-121 -23 l0 -402 Z" /><glyph glyph-name="k" unicode="k" d="M1760 0 l-675 0 l-266 590 l0 -590 l-722 0 l0 399 l120 23 l0 569 l-120 23 l0 394 l722 0 l0 -562 l266 562 l648 0 l0 -254 q-59 -50 -109.5 -105 q-50.5 -55 -94.5 -111 q-44 -56 -81 -110 q-37 -54 -67 -103 q39 -62 83 -129.5 q44 -67.5 91.5 -135.5 q47.5 -68 99 -133.5 q51.5 -65.5 105.5 -122.5 l0 -204 Z" /><glyph glyph-name="l" unicode="l" d="M818 384 q42 0 80 11.5 q38 11.5 70.5 30 q32.5 18.5 59 41 q26.5 22.5 46.5 45.5 l167 0 l0 -512 l-1144 0 l0 399 l120 23 l0 569 l-120 23 l0 394 l842 0 l0 -394 l-121 -23 l0 -607 Z" /><glyph glyph-name="m" unicode="m" d="M818 689 l0 -689 l-721 0 l0 399 l120 23 l0 569 l-120 23 l0 394 l721 0 l303 -538 l300 538 l721 0 l0 -394 l-120 -23 l0 -569 l120 -23 l0 -399 l-721 0 l0 689 l-300 -508 l-303 508 Z" /><glyph glyph-name="n" unicode="n" d="M578 739 l0 -317 l121 -22 l0 -400 l-602 0 l0 399 l120 23 l0 569 l-120 23 l0 394 l722 0 l481 -759 l0 340 l-120 25 l0 394 l601 0 l0 -394 l-120 -23 l0 -569 l120 -23 l0 -399 l-722 0 l-481 739 Z" /><glyph glyph-name="o" unicode="o" d="M901 -18 q-176 0 -329.5 37.5 q-153.5 37.5 -267 129 q-113.5 91.5 -179 233.5 q-65.5 142 -65.5 341 q0 195 65.5 332.5 q65.5 137.5 179.5 224 q114 86.5 267 126.5 q153 40 329 40 q175 0 328.5 -40 q153.5 -40 268 -126.5 q114.5 -86.5 180.5 -224 q66 -137.5 66 -332.5 q0 -132 -30 -239.5 q-30 -107.5 -84.5 -191 q-54.5 -83.5 -131 -144 q-76.5 -60.5 -170.5 -100 q-94 -39.5 -202 -53 q-108 -13.5 -225 -13.5 ZM901 1020 q-59 0 -99.5 -15 q-40.5 -15 -67 -39 q-26.5 -24 -41.5 -55 q-15 -31 -21.5 -63.5 q-6.5 -32.5 -8 -64 q-1.5 -31.5 -1.5 -55.5 q0 -23 1 -54.5 q1 -31.5 7 -66 q6 -34.5 20 -68.5 q14 -34 40.5 -61 q26.5 -27 68 -43.5 q41.5 -16.5 102.5 -16.5 q60 0 101.5 16 q41.5 16 68 42.5 q26.5 26.5 41.5 59.5 q15 33 21.5 66.5 q6.5 33.5 8 65.5 q1.5 32 1.5 55 q0 24 -1.5 55.5 q-1.5 31.5 -8 64.5 q-6.5 33 -21.5 64.5 q-15 31.5 -41.5 56.5 q-26.5 25 -68 40.5 q-41.5 15.5 -101.5 15.5 Z" /><glyph glyph-name="p" unicode="p" d="M97 1408 l819 0 q160 0 277.5 -14 q117.5 -14 200 -40 q82.5 -26 135 -64 q52.5 -38 82 -85.5 q29.5 -47.5 40 -104 q10.5 -56.5 10.5 -120.5 q0 -66 -12.5 -124 q-12.5 -58 -46.5 -106.5 q-34 -48.5 -93.5 -87 q-59.5 -38.5 -153 -65 q-93.5 -26.5 -225.5 -40.5 q-132 -14 -311 -14 l0 -121 l120 -23 l0 -399 l-842 0 l0 399 l120 23 l0 569 l-120 23 l0 394 ZM819 796 q55 0 99.5 6 q44.5 6 76 26 q31.5 20 48.5 58 q17 38 17 103 q0 60 -17 95 q-17 35 -48.5 54 q-31.5 19 -76 24.5 q-44.5 5.5 -99.5 5.5 l0 -372 Z" /><glyph glyph-name="q" unicode="q" d="M935 -407 q-39 32 -82 73 q-43 41 -84.5 90.5 q-41.5 49.5 -77.5 108 q-36 58.5 -60 126.5 q-125 28 -229.5 85 q-104.5 57 -180 147 q-75.5 90 -117.5 214 q-42 124 -42 286 q0 195 65.5 332.5 q65.5 137.5 179.5 224 q114 86.5 267 126.5 q153 40 329 40 q175 0 328.5 -40 q153.5 -40 268 -126.5 q114.5 -86.5 180.5 -224 q66 -137.5 66 -332.5 q0 -150 -36.5 -267.5 q-36.5 -117.5 -102 -205 q-65.5 -87.5 -157 -147 q-91.5 -59.5 -201.5 -93.5 q42 -52 85 -101.5 q43 -49.5 74 -84.5 l0 -231 l-473 0 ZM903 1020 l-10 0 q-57 0 -95.5 -15 q-38.5 -15 -64 -40 q-25.5 -25 -39.5 -56.5 q-14 -31.5 -20.5 -63.5 q-6.5 -32 -8 -63 q-1.5 -31 -1.5 -54 q0 -23 1 -54.5 q1 -31.5 7 -66 q6 -34.5 20 -68.5 q14 -34 40.5 -61 q26.5 -27 68 -43.5 q41.5 -16.5 102.5 -16.5 q60 0 101.5 16 q41.5 16 68 42.5 q26.5 26.5 41.5 59.5 q15 33 21.5 66.5 q6.5 33.5 8 65.5 q1.5 32 1.5 55 q0 23 -1 54 q-1 31 -8 64 q-7 33 -21 65 q-14 32 -39.5 57.5 q-25.5 25.5 -65.5 41 q-40 15.5 -97 15.5 l-10 0 Z" /><glyph glyph-name="r" unicode="r" d="M1660 0 l-598 0 q-28 52 -58 110.5 q-30 58.5 -58 122.5 q-28 64 -52.5 132 q-24.5 68 -41.5 140 l-33 0 l0 -505 l-722 0 l0 399 l120 23 l0 569 l-120 23 l0 394 l819 0 q163 0 281.5 -14 q118.5 -14 201 -41 q82.5 -27 133.5 -65.5 q51 -38.5 79.5 -87 q28.5 -48.5 38.5 -106.5 q10 -58 10 -123 q0 -66 -12.5 -120 q-12.5 -54 -44.5 -99 q-32 -45 -87.5 -82.5 q-55.5 -37.5 -141.5 -70.5 q18 -36 53.5 -85.5 q35.5 -49.5 77.5 -101 q42 -51.5 83.5 -99.5 q41.5 -48 71.5 -82 l0 -231 ZM819 776 q55 0 99.5 5.5 q44.5 5.5 76 24 q31.5 18.5 48.5 54.5 q17 36 17 97 q0 60 -17 96 q-17 36 -48.5 55.5 q-31.5 19.5 -76 25.5 q-44.5 6 -99.5 6 l0 -364 Z" /><glyph glyph-name="s" unicode="s" d="M1322 443 q0 -93 -26.5 -164.5 q-26.5 -71.5 -72 -124 q-45.5 -52.5 -108 -87.5 q-62.5 -35 -134.5 -56.5 q-72 -21.5 -150.5 -25 q-78.5 -3.5 -156.5 -3.5 q-108 0 -195 5 q-87 5 -155.5 22 q-68.5 17 -121 37.5 q-52.5 20.5 -92.5 40.5 l0 347 l283 0 q42 -66 96 -97 q54 -31 111 -31 q17 0 38 3 q21 3 39 19 q18 16 30.5 49.5 q12.5 33.5 12.5 94.5 q-81 7 -160.5 20.5 q-79.5 13.5 -152 36.5 q-72.5 23 -134.5 58.5 q-62 35.5 -107.5 86 q-45.5 50.5 -71.5 119 q-26 68.5 -26 157.5 q0 102 26 178.5 q26 76.5 71 131.5 q45 55 106.5 91 q61.5 36 132.5 57 q71 21 148 29.5 q77 8.5 154 8.5 q109 0 195.5 -11 q86.5 -11 155 -28 q68.5 -17 121 -37.5 q52.5 -20.5 93.5 -39.5 l0 -350 l-303 0 q-38 72 -87 105 q-49 33 -100 33 q-17 0 -39 -5.5 q-22 -5.5 -41 -24.5 q-19 -19 -32 -56 q-13 -37 -13 -100 q165 -6 289.5 -35 q124.5 -29 208.5 -86.5 q84 -57.5 126 -148 q42 -90.5 42 -219.5 Z" /><glyph glyph-name="t" unicode="t" d="M421 1036 q-52 0 -92 -14 q-40 -14 -67 -35 q-27 -21 -41 -45.5 q-14 -24.5 -14 -45.5 l-167 0 l0 512 l1364 0 l0 -512 l-167 0 q0 21 -14 45.5 q-14 24.5 -41 45.5 q-27 21 -67 35 q-40 14 -92 14 l0 -614 l120 -23 l0 -399 l-842 0 l0 399 l120 23 l0 614 Z" /><glyph glyph-name="u" unicode="u" d="M1650 991 q-1 -30 -1 -58.5 q0 -28.5 0 -54.5 l0 -155 q0 -200 -55 -342.5 q-55 -142.5 -149 -233.5 q-94 -91 -220.5 -128 q-126.5 -37 -268.5 -37 q-164 0 -306.5 37 q-142.5 37 -248 128.5 q-105.5 91.5 -166 233.5 q-60.5 142 -60.5 342 l0 268 l-120 23 l0 394 l781 0 l0 -394 l-120 -23 l0 -119 q0 -24 0 -48.5 q0 -24.5 0.5 -45.5 q0.5 -21 0.5 -36.5 q0 -15.5 0 -20.5 q0 -23 1 -53.5 q1 -30.5 8 -63 q7 -32.5 21.5 -64 q14.5 -31.5 41 -56.5 q26.5 -25 67 -40.5 q40.5 -15.5 100.5 -15.5 q60 0 101.5 15.5 q41.5 15.5 68 41 q26.5 25.5 41.5 57.5 q15 32 21.5 64.5 q6.5 32.5 8 63 q1.5 30.5 1.5 53.5 q0 7 0 22.5 q0 15.5 -0.5 36 q-0.5 20.5 -0.5 44 q0 23.5 0 46.5 l0 119 l-120 23 l0 394 l694 0 l0 -394 l-121 -23 Z" /><glyph glyph-name="v" unicode="v" d="M534 -1 l-374 993 l-143 22 l0 394 l878 0 l0 -394 l-103 -22 l162 -544 l163 544 l-104 22 l0 394 l727 0 l0 -394 l-142 -22 l-374 -993 l-690 0 Z" /><glyph glyph-name="w" unicode="w" d="M544 -1 l-384 993 l-143 22 l0 394 l913 0 l0 -394 l-104 -22 l163 -524 l163 524 l-104 22 l0 394 l913 0 l0 -394 l-103 -22 l162 -524 l163 524 l-104 22 l0 399 l692 0 l0 -399 l-142 -22 l-384 -993 l-669 0 l-182 541 l-180 -541 l-670 0 Z" /><glyph glyph-name="x" unicode="x" d="M1718 421 l143 -22 l0 -399 l-953 0 l0 399 l103 22 l-219 164 l-181 -164 l178 -22 l0 -399 l-726 0 l0 399 l142 22 l347 304 l-338 267 l-171 22 l0 394 l925 0 l0 -394 l-103 -22 l237 -173 l163 173 l-179 22 l0 394 l727 0 l0 -394 l-170 -22 l-281 -285 l356 -286 Z" /><glyph glyph-name="y" unicode="y" d="M461 0 l0 397 l120 30 l-413 565 l-152 22 l0 394 l803 0 l0 -394 l-94 -22 l191 -289 l190 289 l-94 22 l0 394 l802 0 l0 -394 l-151 -22 l-413 -565 l121 -30 l0 -397 l-910 0 Z" /><glyph glyph-name="z" unicode="z" d="M30 0 l0 352 l517 703 q-53 0 -99 -10.5 q-46 -10.5 -85 -27.5 q-39 -17 -70.5 -37.5 q-31.5 -20.5 -55.5 -41.5 l-154 0 l0 470 l1090 0 l0 -380 l-461 -660 q22 -3 44 -3 q43 0 82 9.5 q39 9.5 72 24.5 q33 15 60.5 33.5 q27.5 18.5 48.5 36.5 l154 0 l0 -469 l-1143 0 Z" /><glyph glyph-name="braceleft" unicode="{" d="M12 1024 q68 0 114.5 19.5 q46.5 19.5 77.5 53 q31 33.5 50.5 78 q19.5 44.5 33 94.5 q13.5 50 25 103 q11.5 53 27 103 q15.5 50 39 94.5 q23.5 44.5 60.5 78 q37 33.5 92 53 q55 19.5 133 19.5 q58 0 121 -4.5 q63 -4.5 132 -15.5 l0 -352 q-69 0 -111 -19.5 q-42 -19.5 -65.5 -51.5 q-23.5 -32 -33.5 -73.5 q-10 -41.5 -15.5 -86.5 q-5.5 -45 -10 -89.5 q-4.5 -44.5 -18 -82.5 q-13.5 -38 -40 -66 q-26.5 -28 -75.5 -40 q49 -12 75.5 -40 q26.5 -28 40 -66 q13.5 -38 18.5 -82.5 q5 -44.5 10 -89.5 q5 -45 15 -86.5 q10 -41.5 33.5 -73.5 q23.5 -32 65.5 -51 q42 -19 111 -19 l0 -352 q-69 -11 -132 -15.5 q-63 -4.5 -121 -4.5 q-98 0 -159.5 30 q-61.5 30 -99 79 q-37.5 49 -57.5 111.5 q-20 62.5 -35.5 127.5 q-15.5 65 -32.5 127.5 q-17 62.5 -48 111.5 q-31 49 -83 79 q-52 30 -137 30 l0 369 Z" /><glyph glyph-name="bar" unicode="|" d="M134 1664 l513 0 l0 -1792 l-513 0 l0 1792 Z" /><glyph glyph-name="braceright" unicode="}" d="M967 655 q-85 0 -137 -30 q-52 -30 -83 -79 q-31 -49 -48 -111.5 q-17 -62.5 -32.5 -127.5 q-15.5 -65 -35.5 -127.5 q-20 -62.5 -57.5 -111.5 q-37.5 -49 -99 -79 q-61.5 -30 -159.5 -30 q-58 0 -121 4.5 q-63 4.5 -132 15.5 l0 352 q69 0 111 19 q42 19 65.5 51 q23.5 32 33.5 73.5 q10 41.5 15 86.5 q5 45 10 89.5 q5 44.5 18.5 82.5 q13.5 38 40 66 q26.5 28 75.5 40 q-49 12 -75.5 40 q-26.5 28 -40 66 q-13.5 38 -18 82.5 q-4.5 44.5 -10 89.5 q-5.5 45 -15.5 86.5 q-10 41.5 -33.5 73.5 q-23.5 32 -65.5 51.5 q-42 19.5 -111 19.5 l0 352 q69 11 132 15.5 q63 4.5 121 4.5 q78 0 133 -19.5 q55 -19.5 92 -53 q37 -33.5 60.5 -78 q23.5 -44.5 39 -94.5 q15.5 -50 27 -103 q11.5 -53 25 -103 q13.5 -50 33 -94.5 q19.5 -44.5 50.5 -78 q31 -33.5 77.5 -53 q46.5 -19.5 114.5 -19.5 l0 -369 Z" /><glyph glyph-name="asciitilde" unicode="~" d="M918 742 q-32 -45 -74 -63 q-42 -18 -87 -18 q-46 0 -95 15 q-49 15 -99 33 q-50 18 -100 33 q-50 15 -98 15 q-69 0 -139 -23 q-70 -23 -144 -82 l62 426 q37 42 79.5 58.5 q42.5 16.5 90.5 16.5 q45 0 93 -18 q48 -18 97 -39.5 q49 -21.5 98 -39.5 q49 -18 97 -18 q68 0 136.5 26.5 q68.5 26.5 142.5 94.5 l-60 -417 Z" /><glyph glyph-name="exclamdown" unicode="¡" d="M159 1536 l640 0 l0 -384 l-640 0 l0 384 ZM223 1024 l512 0 l128 -625 l0 -399 l-704 0 l-65 399 l129 625 Z" /><glyph glyph-name="cent" unicode="¢" d="M669 -21 q-135 23 -247.5 80 q-112.5 57 -194.5 149.5 q-82 92.5 -127.5 221 q-45.5 128.5 -45.5 293.5 q0 164 43 288.5 q43 124.5 122.5 212.5 q79.5 88 193.5 140.5 q114 52.5 256 72.5 l0 227 l385 0 l0 -226 q74 -9 133.5 -21 q59.5 -12 107 -26 q47.5 -14 84 -28.5 q36.5 -14.5 63.5 -28.5 l0 -439 l-283 0 q-48 66 -106 97.5 q-58 31.5 -121 31.5 q-52 0 -101.5 -20 q-49.5 -20 -88 -58.5 q-38.5 -38.5 -62 -94.5 q-23.5 -56 -23.5 -128 q0 -159 81 -231.5 q81 -72.5 230 -72.5 q88 0 208.5 22 q120.5 22 265.5 67 l0 -443 q-198 -66 -388 -90 l0 -233 l-385 0 l0 237 Z" /><glyph glyph-name="sterling" unicode="£" d="M97 832 l147 0 q-140 176 -140 332 q0 89 47 164.5 q47 75.5 142 130.5 q95 55 238 86 q143 31 335 31 q97 0 176 -12 q79 -12 141.5 -30.5 q62.5 -18.5 110.5 -40.5 q48 -22 83 -43 l0 -477 l-300 0 q-9 38 -28 64.5 q-19 26.5 -44 43.5 q-25 17 -55 24.5 q-30 7.5 -61 7.5 q-27 0 -54 -11 q-27 -11 -48 -29 q-21 -18 -34 -42 q-13 -24 -13 -51 q0 -35 15 -72.5 q15 -37.5 42 -75.5 l324 0 l0 -226 l-326 0 l-60 -262 q76 0 146.5 11.5 q70.5 11.5 131.5 29.5 q61 18 111 41 q50 23 86 46 l167 0 l0 -472 l-1280 0 l0 434 q7 11 21.5 30 q14.5 19 33.5 42 q19 23 40.5 48.5 q21.5 25.5 43.5 51.5 l-139 0 l0 226 Z" /><glyph glyph-name="currency" unicode="¤" d="M1180 960 q0 -81 -17.5 -147 q-17.5 -66 -48.5 -121 l140 -139 l-181 -181 l-141 141 q-61 -34 -128.5 -50.5 q-67.5 -16.5 -137.5 -16.5 q-69 0 -137 17 q-68 17 -128 51 l-142 -142 l-181 181 l142 142 q-30 54 -47 120.5 q-17 66.5 -17 144.5 q0 78 17 144 q17 66 47 120 l-142 143 l181 181 l144 -145 q60 33 127 49.5 q67 16.5 136 16.5 q69 0 136 -16.5 q67 -16.5 127 -48.5 l144 144 l181 -181 l-141 -141 q32 -54 49.5 -120.5 q17.5 -66.5 17.5 -145.5 ZM889 954 q0 58 -19 101.5 q-19 43.5 -50.5 73 q-31.5 29.5 -71.5 44.5 q-40 15 -82 15 q-41 0 -80.5 -15 q-39.5 -15 -70 -44 q-30.5 -29 -49.5 -73 q-19 -44 -19 -102 q0 -59 19 -103.5 q19 -44.5 50 -74 q31 -29.5 70.5 -44 q39.5 -14.5 80.5 -14.5 q42 0 82 15 q40 15 71 44.5 q31 29.5 50 73.5 q19 44 19 103 Z" /><glyph glyph-name="yen" unicode="¥" d="M247 768 l214 0 l-241 310 l-162 24 l0 434 l854 0 l0 -434 l-100 -24 l203 -310 l203 310 l-100 24 l0 434 l853 0 l0 -434 l-161 -24 l-242 -310 l215 0 l0 -256 l-412 0 l0 -128 l412 0 l0 -256 l-412 0 l0 -128 l-712 0 l0 128 l-412 0 l0 256 l412 0 l0 128 l-412 0 l0 256 Z" /><glyph glyph-name="brokenbar" unicode="¦" d="M137 1664 l513 0 l0 -768 l-513 0 l0 768 ZM137 704 l513 0 l0 -832 l-513 0 l0 832 Z" /><glyph glyph-name="section" unicode="§" d="M86 707 q0 88 26 149 q26 61 71 106 q-45 38 -71 90.5 q-26 52.5 -26 122.5 q0 124 45 202.5 q45 78.5 118 122.5 q73 44 164.5 60 q91.5 16 184.5 16 q89 0 161 -8.5 q72 -8.5 129.5 -22 q57.5 -13.5 101.5 -30 q44 -16.5 77 -32.5 l0 -284 l-226 0 q-38 57 -85 84 q-47 27 -98 27 q-14 0 -31.5 -4.5 q-17.5 -4.5 -32.5 -19.5 q-15 -15 -25.5 -45 q-10.5 -30 -10.5 -81 q132 -5 232.5 -24.5 q100.5 -19.5 167.5 -58.5 q67 -39 101 -100 q34 -61 34 -149 q0 -88 -26.5 -149.5 q-26.5 -61.5 -71.5 -106.5 q45 -38 71.5 -90 q26.5 -52 26.5 -122 q0 -83 -20.5 -145 q-20.5 -62 -57 -106.5 q-36.5 -44.5 -85.5 -73.5 q-49 -29 -106 -46 q-57 -17 -119 -23.5 q-62 -6.5 -124 -6.5 q-112 0 -197.5 14.5 q-85.5 14.5 -146.5 31.5 q-35 10 -66 21.5 q-31 11.5 -59 25.5 l0 284 l226 0 q38 -57 85 -84 q47 -27 98 -27 q14 0 31.5 4.5 q17.5 4.5 32.5 19.5 q15 15 25.5 45 q10.5 30 10.5 81 q-132 4 -232.5 24 q-100.5 20 -167.5 59.5 q-67 39.5 -101 100.5 q-34 61 -34 148 ZM535 859 q-21 -7 -38.5 -20 q-17.5 -13 -30 -29 q-12.5 -16 -19.5 -33.5 q-7 -17.5 -7 -33.5 q0 -32 39.5 -48.5 q39.5 -16.5 111.5 -27.5 l54 -7 q26 7 45 20 q19 13 31.5 29 q12.5 16 18.5 33.5 q6 17.5 6 33.5 q0 32 -37 50 q-37 18 -104 27 l-70 6 Z" /><glyph glyph-name="dieresis" unicode="¨" d="M839 2048 l425 0 l0 -384 l-425 0 l0 384 ZM520 2048 l0 -384 l-425 0 l0 384 l425 0 Z" /><glyph glyph-name="copyright" unicode="©" d="M61 767 q0 112 29 215 q29 103 81.5 193 q52.5 90 126 163.5 q73.5 73.5 163.5 126 q90 52.5 193 81.5 q103 29 215 29 q111 0 214 -29 q103 -29 193 -81.5 q90 -52.5 164 -126 q74 -73.5 126.5 -163.5 q52.5 -90 81.5 -193 q29 -103 29 -215 q0 -112 -29 -215 q-29 -103 -81.5 -192.5 q-52.5 -89.5 -126.5 -163.5 q-74 -74 -164 -126.5 q-90 -52.5 -193 -81.5 q-103 -29 -214 -29 q-112 0 -215 29 q-103 29 -193 81.5 q-90 52.5 -163.5 126.5 q-73.5 74 -126 163.5 q-52.5 89.5 -81.5 192.5 q-29 103 -29 215 ZM207 767 q0 -91 23.5 -176 q23.5 -85 66.5 -158.5 q43 -73.5 103.5 -134 q60.5 -60.5 134 -103.5 q73.5 -43 158 -66.5 q84.5 -23.5 176.5 -23.5 q91 0 176 23.5 q85 23.5 158.5 66.5 q73.5 43 134 103.5 q60.5 60.5 103.5 134 q43 73.5 66.5 158 q23.5 84.5 23.5 176.5 q0 91 -23.5 176 q-23.5 85 -66.5 158.5 q-43 73.5 -103.5 134 q-60.5 60.5 -134 103.5 q-73.5 43 -158.5 66.5 q-85 23.5 -176 23.5 q-91 0 -176 -23.5 q-85 -23.5 -158.5 -66.5 q-73.5 -43 -134 -103.5 q-60.5 -60.5 -103.5 -134 q-43 -73.5 -66.5 -158.5 q-23.5 -85 -23.5 -176 ZM761 769 q0 -96 47 -138.5 q47 -42.5 137 -42.5 q51 0 124 13.5 q73 13.5 158 39.5 l0 -263 q-88 -29 -174.5 -44.5 q-86.5 -15.5 -167.5 -15.5 q-102 0 -190.5 27 q-88.5 27 -153 83 q-64.5 56 -101.5 140.5 q-37 84.5 -37 200.5 q0 112 34 193.5 q34 81.5 96 134 q62 52.5 150.5 78 q88.5 25.5 196.5 25.5 q66 0 119 -6.5 q53 -6.5 96 -16.5 q43 -10 75.5 -22.5 q32.5 -12.5 56.5 -23.5 l0 -261 l-168 0 q-28 40 -63 58.5 q-35 18.5 -72 18.5 q-31 0 -60 -12 q-29 -12 -52 -34.5 q-23 -22.5 -37 -56 q-14 -33.5 -14 -75.5 Z" /><glyph glyph-name="ordfeminine" unicode="ª" d="M791 640 q-91 -69 -168.5 -98.5 q-77.5 -29.5 -140.5 -29.5 q-69 0 -125.5 21.5 q-56.5 21.5 -101 57 q-44.5 35.5 -77.5 83 q-33 47.5 -54.5 99.5 q-21.5 52 -32 105.5 q-10.5 53.5 -10.5 101.5 q0 141 42 245.5 q42 104.5 117.5 173 q75.5 68.5 180.5 102.5 q105 34 231 34 q129 0 277.5 -27 q148.5 -27 303.5 -78 l0 -886 l-442 0 l0 96 ZM791 1303 q-29 7 -69 7 q-90 0 -131 -65 q-41 -65 -41 -206 q0 -81 17 -129.5 q17 -48.5 48.5 -73.5 q31.5 -25 76 -32.5 q44.5 -7.5 99.5 -7.5 l0 507 Z" /><glyph glyph-name="guillemotleft" unicode="«" d="M1361 627 l334 -163 l0 -481 l-733 374 l0 690 l733 374 l0 -632 l-334 -162 ZM467 627 l334 -163 l0 -481 l-733 374 l0 690 l733 374 l0 -632 l-334 -162 Z" /><glyph glyph-name="logicalnot" unicode="¬" d="M97 896 l768 0 l0 -640 l-256 0 l0 256 l-512 0 l0 384 Z" /><glyph glyph-name="uni00AD" unicode="­" d="" /><glyph glyph-name="registered" unicode="®" d="M61 767 q0 112 29 215 q29 103 81.5 193 q52.5 90 126 163.5 q73.5 73.5 163.5 126 q90 52.5 193 81.5 q103 29 215 29 q111 0 214 -29 q103 -29 193 -81.5 q90 -52.5 164 -126 q74 -73.5 126.5 -163.5 q52.5 -90 81.5 -193 q29 -103 29 -215 q0 -112 -29 -215 q-29 -103 -81.5 -192.5 q-52.5 -89.5 -126.5 -163.5 q-74 -74 -164 -126.5 q-90 -52.5 -193 -81.5 q-103 -29 -214 -29 q-112 0 -215 29 q-103 29 -193 81.5 q-90 52.5 -163.5 126.5 q-73.5 74 -126 163.5 q-52.5 89.5 -81.5 192.5 q-29 103 -29 215 ZM207 767 q0 -91 23.5 -176 q23.5 -85 66.5 -158.5 q43 -73.5 103.5 -134 q60.5 -60.5 134 -103.5 q73.5 -43 158 -66.5 q84.5 -23.5 176.5 -23.5 q91 0 176 23.5 q85 23.5 158.5 66.5 q73.5 43 134 103.5 q60.5 60.5 103.5 134 q43 73.5 66.5 158 q23.5 84.5 23.5 176.5 q0 91 -23.5 176 q-23.5 85 -66.5 158.5 q-43 73.5 -103.5 134 q-60.5 60.5 -134 103.5 q-73.5 43 -158.5 66.5 q-85 23.5 -176 23.5 q-91 0 -176 -23.5 q-85 -23.5 -158.5 -66.5 q-73.5 -43 -134 -103.5 q-60.5 -60.5 -103.5 -134 q-43 -73.5 -66.5 -158.5 q-23.5 -85 -23.5 -176 ZM1350 371 l-349 0 q-33 64 -68.5 140.5 q-35.5 76.5 -55.5 160.5 l-18 0 l0 -301 l-422 0 l0 238 l71 14 l0 339 l-71 14 l0 238 l478 0 q142 0 228 -19 q86 -19 132 -54 q46 -35 60.5 -83.5 q14.5 -48.5 14.5 -107.5 q0 -39 -7.5 -71.5 q-7.5 -32.5 -26 -59.5 q-18.5 -27 -51 -49 q-32.5 -22 -82.5 -41 q10 -22 30.5 -51.5 q20.5 -29.5 45 -60 q24.5 -30.5 49 -59.5 q24.5 -29 42.5 -50 l0 -137 ZM859 834 q32 0 58 3 q26 3 44 12.5 q18 9.5 28 28.5 q10 19 10 52 q0 31 -10 50.5 q-10 19.5 -28 30 q-18 10.5 -44 14 q-26 3.5 -58 3.5 l0 -194 Z" /><glyph glyph-name="macron" unicode="¯" d="M606 1752 l0 -216 l-512 0 l0 216 l512 0 Z" /><glyph glyph-name="degree" unicode="°" d="M860 1190 q0 -98 -34.5 -171 q-34.5 -73 -91 -121.5 q-56.5 -48.5 -129 -73 q-72.5 -24.5 -148.5 -24.5 q-75 0 -147 24.5 q-72 24.5 -128.5 73 q-56.5 48.5 -91 121.5 q-34.5 73 -34.5 171 q0 96 34.5 168.5 q34.5 72.5 90.5 121 q56 48.5 128.5 72.5 q72.5 24 147.5 24 q75 0 147.5 -24 q72.5 -24 129.5 -72.5 q57 -48.5 91.5 -121 q34.5 -72.5 34.5 -168.5 ZM631 1185 q0 48 -15 84.5 q-15 36.5 -39.5 61 q-24.5 24.5 -55.5 37 q-31 12.5 -64 12.5 q-32 0 -63 -12 q-31 -12 -55 -36.5 q-24 -24.5 -39 -61 q-15 -36.5 -15 -85.5 q0 -50 15 -86.5 q15 -36.5 39 -61.5 q24 -25 55 -37 q31 -12 64 -12 q33 0 64 12.5 q31 12.5 55 37 q24 24.5 39 61.5 q15 37 15 86 Z" /><glyph glyph-name="plusminus" unicode="±" d="M61 1024 l384 0 l0 384 l256 0 l0 -384 l384 0 l0 -256 l-384 0 l0 -384 l-256 0 l0 384 l-384 0 l0 256 ZM186 256 l768 0 l0 -256 l-768 0 l0 256 Z" /><glyph glyph-name="twosuperior" unicode="²" d="M106 860 q22 8 63.5 20 q41.5 12 90 29.5 q48.5 17.5 99.5 40.5 q51 23 92 52.5 q41 29.5 67.5 66.5 q26.5 37 26.5 82 q0 29 -9 50 q-9 21 -24.5 35 q-15.5 14 -36.5 20.5 q-21 6.5 -44 6.5 q-32 0 -65 -24.5 q-33 -24.5 -56 -69.5 l-204 0 l0 322 q25 14 60 29 q35 15 81.5 27.5 q46.5 12.5 105.5 20.5 q59 8 133 8 q108 0 198.5 -22 q90.5 -22 155.5 -68 q65 -46 101 -116 q36 -70 36 -167 q0 -60 -17 -108.5 q-17 -48.5 -44.5 -87.5 q-27.5 -39 -62.5 -69.5 q-35 -30.5 -71 -53.5 q-85 -54 -194 -82 l383 0 l0 -290 l-865 0 l0 348 Z" /><glyph glyph-name="threesuperior" unicode="³" d="M485 743 q33 0 58 8.5 q25 8.5 42 22 q17 13.5 25.5 31.5 q8.5 18 8.5 36 q0 15 -5.5 29 q-5.5 14 -16.5 25 q-11 11 -27 18 q-16 7 -37 7 l-177 0 l0 203 l177 0 q21 0 37 7 q16 7 27 18 q11 11 16.5 25 q5.5 14 5.5 29 q0 18 -8.5 36 q-8.5 18 -25.5 31.5 q-17 13.5 -42 22 q-25 8.5 -58 8.5 q-51 0 -99.5 -23.5 q-48.5 -23.5 -86.5 -72.5 l-206 0 l0 285 q33 14 77.5 29.5 q44.5 15.5 102 28 q57.5 12.5 130 21 q72.5 8.5 161.5 8.5 q126 0 219 -29.5 q93 -29.5 154 -78.5 q61 -49 91 -112 q30 -63 30 -129 q0 -50 -13 -86 q-13 -36 -32 -60 q-19 -24 -41.5 -38.5 q-22.5 -14.5 -40.5 -21.5 q20 -9 42.5 -24.5 q22.5 -15.5 41 -39.5 q18.5 -24 31 -58.5 q12.5 -34.5 12.5 -82.5 q0 -66 -30 -128.5 q-30 -62.5 -91 -111 q-61 -48.5 -154 -78 q-93 -29.5 -219 -29.5 q-89 0 -162 7.5 q-73 7.5 -131 20 q-58 12.5 -102.5 27.5 q-44.5 15 -75.5 30 l0 285 l206 0 q38 -51 86.5 -73.5 q48.5 -22.5 99.5 -22.5 Z" /><glyph glyph-name="acute" unicode="´" d="M465 1664 l-425 0 l339 640 l490 0 l-404 -640 Z" /><glyph glyph-name="paragraph" unicode="¶" d="M1585 1014 l-120 -23 l0 -569 l120 -23 l0 -399 l-504 0 l0 896 l-128 0 l0 -896 l-504 0 l0 399 l120 23 l0 121 q-111 0 -192 14 q-81 14 -138 40.5 q-57 26.5 -93 65 q-36 38.5 -56 87 q-20 48.5 -27 106.5 q-7 58 -7 124 q0 64 10 120.5 q10 56.5 38 104 q28 47.5 77.5 85.5 q49.5 38 128 64 q78.5 26 191 40 q112.5 14 265.5 14 l819 0 l0 -394 Z" /><glyph glyph-name="cedilla" unicode="¸" d="M432 -442 q0 31 -10 55.5 q-10 24.5 -27 41 q-17 16.5 -38.5 25.5 q-21.5 9 -43.5 9 q-27 0 -52.5 -14 q-25.5 -14 -45.5 -43 l-122 0 l0 496 l221 0 l0 -257 l11 0 q5 0 10 0.5 q5 0.5 10 0.5 q79 0 143 -18.5 q64 -18.5 109.5 -56.5 q45.5 -38 70 -97.5 q24.5 -59.5 24.5 -141.5 q0 -84 -27 -145.5 q-27 -61.5 -74 -102 q-47 -40.5 -111 -60 q-64 -19.5 -139 -19.5 q-58 0 -121 11 q-63 11 -127 33 l0 190 q63 -19 115.5 -28.5 q52.5 -9.5 87.5 -9.5 q66 0 101 31 q35 31 35 100 Z" /><glyph glyph-name="onesuperior" unicode="¹" d="M103 1484 l511 52 l0 -718 l86 -17 l0 -289 l-597 0 l0 289 l85 17 l0 377 l-85 0 l0 289 Z" /><glyph glyph-name="ordmasculine" unicode="º" d="M697 479 q-130 0 -243 31.5 q-113 31.5 -197 99 q-84 67.5 -132 173.5 q-48 106 -48 256 q0 145 48.5 247 q48.5 102 132.5 166 q84 64 197 93.5 q113 29.5 242 29.5 q129 0 242 -29.5 q113 -29.5 197 -93.5 q84 -64 133 -166 q49 -102 49 -247 q0 -150 -48.5 -256 q-48.5 -106 -132.5 -173.5 q-84 -67.5 -197.5 -99 q-113.5 -31.5 -242.5 -31.5 ZM697 1254 q-44 0 -74 -11 q-30 -11 -50 -29.5 q-20 -18.5 -30.5 -41.5 q-10.5 -23 -15.5 -47 q-5 -24 -6 -46.5 q-1 -22.5 -1 -39.5 q0 -25 3 -62 q3 -37 19.5 -71.5 q16.5 -34.5 52.5 -59 q36 -24.5 102 -24.5 q66 0 102.5 24.5 q36.5 24.5 53 59 q16.5 34.5 19.5 71.5 q3 37 3 62 q0 17 -1 39.5 q-1 22.5 -6 46.5 q-5 24 -15.5 47 q-10.5 23 -30.5 41.5 q-20 18.5 -50.5 29.5 q-30.5 11 -74.5 11 Z" /><glyph glyph-name="guillemotright" unicode="»" d="M1001 789 l0 632 l733 -374 l0 -690 l-733 -374 l0 481 l334 163 l-334 162 ZM107 789 l0 632 l733 -374 l0 -690 l-733 -374 l0 481 l334 163 l-334 162 Z" /><glyph glyph-name="onequarter" unicode="¼" d="M1037 1536 l640 0 l-384 -1536 l-640 0 l384 1536 ZM93 1484 l511 52 l0 -718 l86 -17 l0 -289 l-597 0 l0 289 l85 17 l0 377 l-85 0 l0 289 ZM1569 573 l433 464 l432 27 l0 -491 l216 0 l0 -173 l-216 0 l0 -90 l87 -17 l0 -293 l-606 0 l0 293 l87 17 l0 90 l-433 0 l0 173 ZM1818 573 l184 0 l0 216 l-184 -216 Z" /><glyph glyph-name="onehalf" unicode="½" d="M1022 1536 l640 0 l-384 -1536 l-640 0 l384 1536 ZM78 1484 l511 52 l0 -718 l86 -17 l0 -289 l-597 0 l0 289 l85 17 l0 377 l-85 0 l0 289 ZM1628 347 q22 8 63.5 20 q41.5 12 90 29.5 q48.5 17.5 99.5 40.5 q51 23 92 52.5 q41 29.5 67.5 66.5 q26.5 37 26.5 82 q0 29 -9 50 q-9 21 -24.5 35 q-15.5 14 -36.5 20.5 q-21 6.5 -44 6.5 q-32 0 -65 -24.5 q-33 -24.5 -56 -69.5 l-204 0 l0 322 q25 14 60 29 q35 15 81.5 27.5 q46.5 12.5 105.5 20.5 q59 8 133 8 q108 0 198.5 -22 q90.5 -22 155.5 -68 q65 -46 101 -116 q36 -70 36 -167 q0 -60 -17 -108.5 q-17 -48.5 -44.5 -87.5 q-27.5 -39 -62.5 -69.5 q-35 -30.5 -71 -53.5 q-85 -54 -194 -82 l383 0 l0 -290 l-865 0 l0 348 Z" /><glyph glyph-name="threequarters" unicode="¾" d="M483 743 q33 0 58 8.5 q25 8.5 42 22 q17 13.5 25.5 31.5 q8.5 18 8.5 36 q0 15 -5.5 29 q-5.5 14 -16.5 25 q-11 11 -27 18 q-16 7 -37 7 l-177 0 l0 203 l177 0 q21 0 37 7 q16 7 27 18 q11 11 16.5 25 q5.5 14 5.5 29 q0 18 -8.5 36 q-8.5 18 -25.5 31.5 q-17 13.5 -42 22 q-25 8.5 -58 8.5 q-51 0 -99.5 -23.5 q-48.5 -23.5 -86.5 -72.5 l-206 0 l0 285 q33 14 77.5 29.5 q44.5 15.5 102 28 q57.5 12.5 130 21 q72.5 8.5 161.5 8.5 q126 0 219 -29.5 q93 -29.5 154 -78.5 q61 -49 91 -112 q30 -63 30 -129 q0 -50 -13 -86 q-13 -36 -32 -60 q-19 -24 -41.5 -38.5 q-22.5 -14.5 -40.5 -21.5 q20 -9 42.5 -24.5 q22.5 -15.5 41 -39.5 q18.5 -24 31 -58.5 q12.5 -34.5 12.5 -82.5 q0 -66 -30 -128.5 q-30 -62.5 -91 -111 q-61 -48.5 -154 -78 q-93 -29.5 -219 -29.5 q-89 0 -162 7.5 q-73 7.5 -131 20 q-58 12.5 -102.5 27.5 q-44.5 15 -75.5 30 l0 285 l206 0 q38 -51 86.5 -73.5 q48.5 -22.5 99.5 -22.5 ZM1388 1536 l640 0 l-384 -1536 l-640 0 l384 1536 ZM1920 573 l433 464 l432 27 l0 -491 l216 0 l0 -173 l-216 0 l0 -90 l87 -17 l0 -293 l-606 0 l0 293 l87 17 l0 90 l-433 0 l0 173 ZM2169 573 l184 0 l0 216 l-184 -216 Z" /><glyph glyph-name="questiondown" unicode="¿" d="M1146 1153 l-640 0 l0 384 l640 0 l0 -384 ZM695 449 q0 -31 10.5 -54.5 q10.5 -23.5 28 -39.5 q17.5 -16 40.5 -24.5 q23 -8.5 49 -8.5 q57 0 113 26.5 q56 26.5 99 83.5 l301 0 l0 -346 q-66 -35 -157 -63 q-78 -24 -185.5 -43.5 q-107.5 -19.5 -249.5 -19.5 q-158 0 -285.5 28.5 q-127.5 28.5 -217.5 88.5 q-90 60 -138.5 152 q-48.5 92 -48.5 220 q0 110 35.5 187.5 q35.5 77.5 97 130.5 q61.5 53 143.5 86 q82 33 176 54 l0 117 l637 0 q1 1 3 1 l0 -345 q-16 -7 -55.5 -17.5 q-39.5 -10.5 -89.5 -24.5 q-50 -14 -104.5 -32.5 q-54.5 -18.5 -99 -41.5 q-44.5 -23 -73.5 -52 q-29 -29 -29 -63 Z" /><glyph glyph-name="AE" unicode="æ" d="M1656 384 q71 0 133.5 11.5 q62.5 11.5 115.5 29.5 q53 18 96.5 41 q43.5 23 76.5 46 l167 0 l0 -512 l-1189 0 l21 258 l-418 0 l-128 -258 l-569 0 l147 504 l130 25 l591 1007 l1415 0 l0 -512 l-161 0 q-33 22 -77.5 45 q-44.5 23 -99 41.5 q-54.5 18.5 -118 30 q-63.5 11.5 -133.5 11.5 l0 -273 l300 65 l0 -354 l-300 65 l0 -271 ZM846 601 l246 0 l46 579 l-292 -579 Z" /><glyph glyph-name="Eth" unicode="ð" d="M104 896 l124 0 l0 218 l-128 25 l0 397 l1165 0 q145 -31 261 -89.5 q116 -58.5 197.5 -149.5 q81.5 -91 125 -217.5 q43.5 -126.5 43.5 -293.5 q0 -221 -74 -371.5 q-74 -150.5 -208.5 -242.5 q-134.5 -92 -323.5 -132 q-189 -40 -418 -40 l-768 0 l0 434 l128 25 l0 181 l-124 0 l0 256 ZM966 459 q107 0 165 23.5 q58 23.5 84.5 66.5 q26.5 43 31 103 q4.5 60 4.5 134 q0 74 -4.5 134.5 q-4.5 60.5 -31 103.5 q-26.5 43 -84.5 66.5 q-58 23.5 -165 23.5 l-98 0 l0 -218 l132 0 l0 -256 l-132 0 l0 -181 l98 0 Z" /><glyph glyph-name="multiply" unicode="×" d="M69 496 l272 272 l-272 272 l181 181 l272 -272 l272 272 l181 -181 l-272 -272 l272 -272 l-181 -181 l-272 272 l-272 -272 l-181 181 Z" /><glyph glyph-name="Oslash" unicode="ø" d="M960 -40 q-135 0 -256 24 l-91 -192 l-192 80 l83 172 q-99 43 -180 109 q-81 66 -138.5 157.5 q-57.5 91.5 -89 210 q-31.5 118.5 -31.5 265.5 q0 142 31.5 255.5 q31.5 113.5 89.5 201.5 q58 88 139.5 151 q81.5 63 181 103.5 q99.5 40.5 214 59.5 q114.5 19 239.5 19 q73 0 140.5 -6 q67.5 -6 130.5 -19 l86 177 l192 -64 l-83 -172 q97 -41 176.5 -104 q79.5 -63 136 -150 q56.5 -87 87.5 -199.5 q31 -112.5 31 -252.5 q0 -221 -70 -377.5 q-70 -156.5 -191.5 -256.5 q-121.5 -100 -285 -146 q-163.5 -46 -350.5 -46 ZM960 1102 q-64 0 -107.5 -16.5 q-43.5 -16.5 -72 -43.5 q-28.5 -27 -43.5 -61 q-15 -34 -22.5 -69 q-7.5 -35 -8.5 -68 q-1 -33 -1 -58 q0 -21 0.5 -49 q0.5 -28 5 -58 q4.5 -30 14.5 -61 q10 -31 28 -58 l260 538 q-11 2 -24.5 3 q-13.5 1 -28.5 1 ZM1217 786 q0 19 -1 42.5 q-1 23.5 -4 49 q-3 25.5 -10 52.5 q-7 27 -19 53 l-248 -517 q6 -1 12 -1 q6 0 13 0 q64 0 107.5 17 q43.5 17 72.5 44.5 q29 27.5 44.5 62.5 q15.5 35 22.5 70.5 q7 35.5 8.5 68.5 q1.5 33 1.5 58 Z" /><glyph glyph-name="Thorn" unicode="þ" d="M100 1664 l768 0 l0 -175 l103 0 q170 0 295 -13.5 q125 -13.5 213 -40.5 q88 -27 143.5 -67.5 q55.5 -40.5 87 -94.5 q31.5 -54 43 -121 q11.5 -67 11.5 -147 q0 -63 -13.5 -122 q-13.5 -59 -49.5 -110.5 q-36 -51.5 -99.5 -94 q-63.5 -42.5 -163 -72.5 q-99.5 -30 -240 -46.5 q-140.5 -16.5 -330.5 -16.5 l0 -84 l128 -25 l0 -434 l-896 0 l0 434 l128 25 l0 699 l-128 25 l0 481 ZM868 818 q58 0 105.5 6 q47.5 6 81 25.5 q33.5 19.5 51.5 56.5 q18 37 18 100 q0 61 -18 97.5 q-18 36.5 -51.5 55.5 q-33.5 19 -81 25 q-47.5 6 -105.5 6 l0 -372 Z" /><glyph glyph-name="germandbls" unicode="ß" d="M953 385 q60 0 97.5 12.5 q37.5 12.5 59 33.5 q21.5 21 29 47.5 q7.5 26.5 7.5 54.5 q0 27 -7.5 53.5 q-7.5 26.5 -28.5 47.5 q-21 21 -59 33.5 q-38 12.5 -98 12.5 l0 215 q61 0 99 13 q38 13 59 34.5 q21 21.5 28 48.5 q7 27 7 55 q0 27 -6 53 q-6 26 -25 46 q-19 20 -53 32.5 q-34 12.5 -90 12.5 q-28 0 -54.5 -9 q-26.5 -9 -47 -27 q-20.5 -18 -33 -45.5 q-12.5 -27.5 -12.5 -64.5 l0 -1044 l-768 0 l0 434 l128 25 l0 718 q0 147 79.5 234 q79.5 87 237.5 125 l606 0 q135 0 232 -33.5 q97 -33.5 159 -88.5 q62 -55 91.5 -124.5 q29.5 -69.5 29.5 -142.5 q0 -57 -17 -112 q-17 -55 -49 -103 q-32 -48 -78.5 -86 q-46.5 -38 -104.5 -60 q39 -2 83.5 -9 q44.5 -7 88.5 -22 q44 -15 84 -39 q40 -24 70.5 -59.5 q30.5 -35.5 48.5 -84.5 q18 -49 18 -113 q0 -98 -24.5 -182 q-24.5 -84 -86 -145.5 q-61.5 -61.5 -167.5 -96.5 q-106 -35 -268 -35 l-265 0 l0 385 Z" /><glyph glyph-name="ae" unicode="æ" d="M1650 789 l277 59 l0 -285 l-277 60 l0 -221 q62 0 119 8.5 q57 8.5 106.5 23.5 q49.5 15 90.5 35 q41 20 71 43 l167 0 l0 -512 l-1214 0 l22 237 l-393 0 l-122 -237 l-532 0 l137 464 l122 23 l556 921 l1424 0 l0 -512 l-167 0 q-30 22 -71 42 q-41 20 -90.5 35 q-49.5 15 -106.5 24 q-57 9 -119 9 l0 -217 ZM775 553 l301 0 l0 553 l-301 -553 Z" /><glyph glyph-name="eth" unicode="ð" d="M98 848 l117 0 l0 177 l-120 23 l0 360 l1095 0 q136 -29 245 -82 q109 -53 185.5 -135.5 q76.5 -82.5 117.5 -198 q41 -115.5 41 -269.5 q0 -135 -31.5 -241.5 q-31.5 -106.5 -90 -187 q-58.5 -80.5 -143.5 -136.5 q-85 -56 -191.5 -91 q-106.5 -35 -234 -51 q-127.5 -16 -271.5 -16 l-722 0 l0 399 l120 23 l0 170 l-117 0 l0 256 ZM909 422 q67 0 113 10 q46 10 75.5 28 q29.5 18 46 45 q16.5 27 24 60 q7.5 33 8.5 73 q1 40 1 85 q0 45 -1 85 q-1 40 -8.5 73.5 q-7.5 33.5 -24 60 q-16.5 26.5 -46 45 q-29.5 18.5 -75.5 28.5 q-46 10 -113 10 l-92 0 l0 -177 l177 0 l0 -256 l-177 0 l0 -170 l92 0 Z" /><glyph glyph-name="divide" unicode="÷" d="M266 1280 l384 0 l0 -384 l-384 0 l0 384 ZM74 768 l768 0 l0 -256 l-768 0 l0 256 ZM266 384 l384 0 l0 -384 l-384 0 l0 384 Z" /><glyph glyph-name="oslash" unicode="ø" d="M901 -37 q-63 0 -120 5 q-57 5 -114 15 l-91 -191 l-192 80 l82 171 q-92 40 -167 101 q-75 61 -128 144.5 q-53 83.5 -82 191.5 q-29 108 -29 243 q0 196 65.5 334.5 q65.5 138.5 179.5 225.5 q114 87 267 127 q153 40 329 40 q62 0 120 -4.5 q58 -4.5 113 -14.5 l82 169 l192 -64 l-77 -160 q93 -38 169 -96 q76 -58 130 -138 q54 -80 84 -184.5 q30 -104.5 30 -234.5 q0 -135 -30 -244 q-30 -109 -84.5 -193.5 q-54.5 -84.5 -131 -145.5 q-76.5 -61 -170.5 -100.5 q-94 -39.5 -202 -58 q-108 -18.5 -225 -18.5 ZM901 1014 q-60 0 -100.5 -15 q-40.5 -15 -67 -39.5 q-26.5 -24.5 -41 -55.5 q-14.5 -31 -21.5 -63 q-7 -32 -8 -62.5 q-1 -30.5 -1 -53.5 q0 -18 0.5 -42 q0.5 -24 4 -50.5 q3.5 -26.5 11 -54 q7.5 -27.5 21.5 -51.5 l234 485 q-8 1 -16 1.5 q-8 0.5 -16 0.5 ZM1143 723 q0 17 -0.5 39.5 q-0.5 22.5 -4 47.5 q-3.5 25 -10.5 50 q-7 25 -20 48 l-229 -480 l22 0 q60 0 101.5 15.5 q41.5 15.5 68 41 q26.5 25.5 41.5 57.5 q15 32 21.5 64.5 q6.5 32.5 8 63 q1.5 30.5 1.5 53.5 Z" /><glyph glyph-name="thorn" unicode="þ" d="M91 1536 l722 0 l0 -198 l97 0 q160 0 277.5 -14 q117.5 -14 200 -40 q82.5 -26 135 -64 q52.5 -38 82 -85.5 q29.5 -47.5 40 -104 q10.5 -56.5 10.5 -120.5 q0 -66 -12.5 -124 q-12.5 -58 -46.5 -106.5 q-34 -48.5 -93.5 -87 q-59.5 -38.5 -153 -65 q-93.5 -26.5 -225.5 -40.5 q-132 -14 -311 -14 l0 -51 l120 -23 l0 -399 l-842 0 l0 399 l120 23 l0 697 l-120 23 l0 394 ZM813 726 q55 0 99.5 6 q44.5 6 76 26 q31.5 20 48.5 58 q17 38 17 103 q0 60 -17 95 q-17 35 -48.5 54 q-31.5 19 -76 24.5 q-44.5 5.5 -99.5 5.5 l0 -372 Z" /><glyph glyph-name="Dcroat" unicode="&#x110;" d="M1265 1536 q145 -31 261 -89.5 q116 -58.5 197.5 -149.5 q81.5 -91 125 -217.5 q43.5 -126.5 43.5 -293.5 q0 -221 -74 -371.5 q-74 -150.5 -208.5 -242.5 q-134.5 -92 -323.5 -132 q-189 -40 -418 -40 l-768 0 l0 434 l128 25 l0 197 l-128 0 l0 257 l128 0 l0 201 l-128 25 l0 397 l1165 0 ZM966 459 q107 0 165 23.5 q58 23.5 84.5 66.5 q26.5 43 31 103 q4.5 60 4.5 134 q0 74 -4.5 134.5 q-4.5 60.5 -31 103.5 q-26.5 43 -84.5 66.5 q-58 23.5 -165 23.5 l-98 0 l0 -201 l136 0 l0 -257 l-136 0 l0 -197 l98 0 Z" /><glyph glyph-name="dcroat" unicode="&#x111;" d="M1190 1408 q136 -29 245 -82 q109 -53 185.5 -135.5 q76.5 -82.5 117.5 -198 q41 -115.5 41 -269.5 q0 -135 -31.5 -241.5 q-31.5 -106.5 -90 -187 q-58.5 -80.5 -143.5 -136.5 q-85 -56 -191.5 -91 q-106.5 -35 -234 -51 q-127.5 -16 -271.5 -16 l-722 0 l0 399 l120 23 l0 176 l-121 0 l0 256 l121 0 l0 171 l-120 23 l0 360 l1095 0 ZM909 422 q67 0 113 10 q46 10 75.5 28 q29.5 18 46 45 q16.5 27 24 60 q7.5 33 8.5 73 q1 40 1 85 q0 45 -1 85 q-1 40 -8.5 73.5 q-7.5 33.5 -24 60 q-16.5 26.5 -46 45 q-29.5 18.5 -75.5 28.5 q-46 10 -113 10 l-92 0 l0 -171 l128 0 l0 -256 l-128 0 l0 -176 l92 0 Z" /><glyph glyph-name="dotlessi" unicode="&#x131;" d="M97 1408 l842 0 l0 -394 l-120 -23 l0 -569 l120 -23 l0 -399 l-842 0 l0 399 l120 23 l0 569 l-120 23 l0 394 Z" /><glyph glyph-name="Lslash" unicode="&#x141;" d="M870 896 l172 0 l0 -256 l-172 0 l0 -256 q48 0 90 11.5 q42 11.5 78 29.5 q36 18 65.5 41 q29.5 23 51.5 46 l167 0 l0 -512 l-1220 0 l0 434 l128 25 l0 181 l-128 0 l0 256 l128 0 l0 181 l-128 25 l0 434 l896 0 l0 -434 l-128 -25 l0 -181 Z" /><glyph glyph-name="lslash" unicode="&#x142;" d="M818 896 l89 0 l0 -256 l-89 0 l0 -256 q42 0 80 11.5 q38 11.5 70.5 30 q32.5 18.5 59 41 q26.5 22.5 46.5 45.5 l167 0 l0 -512 l-1144 0 l0 399 l120 23 l0 218 l-120 0 l0 256 l120 0 l0 95 l-120 23 l0 399 l842 0 l0 -399 l-121 -23 l0 -95 Z" /><glyph glyph-name="OE" unicode="&#x152;" d="M2445 0 l-1159 0 q-148 -40 -327 -40 q-125 0 -240 20.5 q-115 20.5 -214.5 63 q-99.5 42.5 -180.5 108.5 q-81 66 -139 158 q-58 92 -89.5 210.5 q-31.5 118.5 -31.5 265.5 q0 142 31.5 255.5 q31.5 113.5 89.5 201.5 q58 88 139.5 151 q81.5 63 181 103.5 q99.5 40.5 214 59.5 q114.5 19 239.5 19 q183 0 336 -40 l1156 0 l0 -552 q-62 25 -150 45 q-75 17 -185 31.5 q-110 14.5 -260 14.5 l0 -196 l294 65 l0 -354 l-294 65 l0 -196 q117 0 208 7 q91 7 161.5 18.5 q70.5 11.5 124 26 q53.5 14.5 95.5 29.5 l0 -540 ZM959 1102 q-64 0 -107.5 -16.5 q-43.5 -16.5 -72 -43.5 q-28.5 -27 -43.5 -61 q-15 -34 -22.5 -69 q-7.5 -35 -8.5 -68 q-1 -33 -1 -58 q0 -25 1 -58 q1 -33 8.5 -68.5 q7.5 -35.5 22.5 -70.5 q15 -35 43.5 -62.5 q28.5 -27.5 72 -44.5 q43.5 -17 107.5 -17 q52 0 91.5 2 q39.5 2 69.5 6 q30 4 53 9 q23 5 43 10 l0 568 q-17 7 -39.5 14.5 q-22.5 7.5 -53 13.5 q-30.5 6 -71 10 q-40.5 4 -93.5 4 Z" /><glyph glyph-name="oe" unicode="&#x153;" d="M1742 789 l276 59 l0 -285 l-276 60 l0 -221 q62 0 119 8.5 q57 8.5 106.5 23.5 q49.5 15 90.5 35 q41 20 71 43 l167 0 l0 -512 l-1087 0 q-141 -37 -308 -37 q-117 0 -225 18.5 q-108 18.5 -201.5 58 q-93.5 39.5 -170 100.5 q-76.5 61 -131 145.5 q-54.5 84.5 -84 193 q-29.5 108.5 -29.5 244.5 q0 196 65.5 334.5 q65.5 138.5 179.5 225.5 q114 87 267 127 q153 40 329 40 q180 0 335 -42 l1060 0 l0 -512 l-167 0 q-30 22 -71 42 q-41 20 -90.5 35 q-49.5 15 -106.5 24 q-57 9 -119 9 l0 -217 ZM901 1014 q-60 0 -100.5 -15 q-40.5 -15 -67 -39.5 q-26.5 -24.5 -41 -55.5 q-14.5 -31 -21.5 -63 q-7 -32 -8 -62.5 q-1 -30.5 -1 -53.5 q0 -22 1 -53 q1 -31 7.5 -64 q6.5 -33 20.5 -65 q14 -32 40.5 -57.5 q26.5 -25.5 67.5 -41.5 q41 -16 102 -16 q93 0 150 9.5 q57 9.5 89 20.5 l0 529 q-18 5 -40.5 10 q-22.5 5 -51.5 8.5 q-29 3.5 -65 6 q-36 2.5 -82 2.5 Z" /><glyph glyph-name="florin" unicode="&#x192;" d="M408 808 l-232 0 l20 187 l212 0 q2 85 13 163 q11 78 35.5 146 q24.5 68 65 123.5 q40.5 55.5 101.5 95 q61 39.5 144.5 61 q83.5 21.5 194.5 21.5 q87 0 165 -21.5 q78 -21.5 136 -72.5 q58 -51 92 -136 q34 -85 34 -211 q0 -8 -0.5 -16.5 q-0.5 -8.5 -0.5 -16.5 l-317 0 q3 8 5.5 25.5 q2.5 17.5 2.5 37.5 q0 16 -2 32 q-2 16 -7 29 q-5 13 -13 21 q-8 8 -20 8 q-15 0 -28 -29.5 q-13 -29.5 -13 -104.5 l0 -155 l249 0 l-20 -187 l-229 0 l0 -396 q0 -111 -35 -209.5 q-35 -98.5 -103 -172 q-68 -73.5 -168.5 -116 q-100.5 -42.5 -231.5 -42.5 q-87 0 -168.5 23.5 q-81.5 23.5 -144.5 69 q-63 45.5 -101 112 q-38 66.5 -38 152.5 q0 61 21 132 l314 0 q-1 -6 -3 -26 q-2 -20 -2 -43 q0 -14 1.5 -28 q1.5 -14 5 -25 q3.5 -11 10 -18 q6.5 -7 16.5 -7 q7 0 14 9.5 q7 9.5 12.5 32 q5.5 22.5 9 59.5 q3.5 37 3.5 93 l0 400 Z" /><glyph glyph-name="circumflex" unicode="&#x2c6;" d="M53 1664 l340 639 l490 0 l339 -639 l-425 0 l-159 383 l-160 -383 l-425 0 Z" /><glyph glyph-name="caron" unicode="&#x2c7;" d="M478 2303 l160 -383 l159 383 l425 0 l-339 -639 l-490 0 l-340 639 l425 0 Z" /><glyph glyph-name="breve" unicode="&#x2d8;" d="M334 1980 q0 -38 11.5 -66 q11.5 -28 30 -47.5 q18.5 -19.5 42.5 -29 q24 -9.5 49 -9.5 q25 0 48.5 9.5 q23.5 9.5 42.5 29 q19 19.5 30.5 47.5 q11.5 28 11.5 66 l269 0 q0 -112 -34.5 -195.5 q-34.5 -83.5 -91 -139 q-56.5 -55.5 -129 -83 q-72.5 -27.5 -148.5 -27.5 q-75 0 -147 27.5 q-72 27.5 -128.5 83 q-56.5 55.5 -91 139 q-34.5 83.5 -34.5 195.5 l269 0 Z" /><glyph glyph-name="dotaccent" unicode="&#x2d9;" d="M95 2176 l640 0 l0 -512 l-640 0 l0 512 Z" /><glyph glyph-name="ring" unicode="&#x2da;" d="M871 1926 q0 -98 -34.5 -171 q-34.5 -73 -91 -121.5 q-56.5 -48.5 -129 -73 q-72.5 -24.5 -148.5 -24.5 q-75 0 -147 24.5 q-72 24.5 -128.5 73 q-56.5 48.5 -91 121.5 q-34.5 73 -34.5 171 q0 96 34.5 168.5 q34.5 72.5 90.5 121 q56 48.5 128.5 72.5 q72.5 24 147.5 24 q75 0 147.5 -24 q72.5 -24 129.5 -72.5 q57 -48.5 91.5 -121 q34.5 -72.5 34.5 -168.5 ZM642 1921 q0 48 -15 84.5 q-15 36.5 -39.5 61 q-24.5 24.5 -55.5 37 q-31 12.5 -64 12.5 q-32 0 -63 -12 q-31 -12 -55 -36.5 q-24 -24.5 -39 -61 q-15 -36.5 -15 -85.5 q0 -50 15 -86.5 q15 -36.5 39 -61.5 q24 -25 55 -37 q31 -12 64 -12 q33 0 64 12.5 q31 12.5 55 37 q24 24.5 39 61.5 q15 37 15 86 Z" /><glyph glyph-name="ogonek" unicode="&#x2db;" d="M380 -422 q0 -69 35 -100 q35 -31 101 -31 q67 0 183 38 l0 -317 q-64 -21 -131 -32.5 q-67 -11.5 -125 -11.5 q-84 0 -154 22.5 q-70 22.5 -121 70 q-51 47.5 -79.5 120 q-28.5 72.5 -28.5 171.5 q0 50 11 99 q11 49 28.5 94.5 q17.5 45.5 40.5 86.5 q23 41 47 77 q55 82 128 155 l334 0 q-38 -37 -72 -75 q-34 -38 -63 -76 q-25 -33 -49 -69.5 q-24 -36.5 -43 -74 q-19 -37.5 -30.5 -75 q-11.5 -37.5 -11.5 -72.5 Z" /><glyph glyph-name="tilde" unicode="&#x2dc;" d="M915 1619 q-32 -45 -74 -63 q-42 -18 -87 -18 q-46 0 -95 15 q-49 15 -99 33 q-50 18 -100 33 q-50 15 -98 15 q-69 0 -139 -23 q-70 -23 -144 -82 l62 426 q37 42 79.5 58.5 q42.5 16.5 90.5 16.5 q45 0 93 -18 q48 -18 97 -39.5 q49 -21.5 98 -39.5 q49 -18 97 -18 q68 0 136.5 26.5 q68.5 26.5 142.5 94.5 l-60 -417 Z" /><glyph glyph-name="hungarumlaut" unicode="&#x2dd;" d="M1227 1664 l-435 0 l405 640 l490 0 l-460 -640 ZM559 1664 l-405 0 l249 640 l490 0 l-334 -640 Z" /><glyph glyph-name="uni030F" unicode="&#x30f;" d="M703 2304 l490 0 l239 -640 l-425 0 l-304 640 ZM52 2304 l490 0 l339 -640 l-425 0 l-404 640 Z" /><glyph glyph-name="uni0311" unicode="&#x311;" d="M65 1535 q0 112 34.5 195.5 q34.5 83.5 91 139 q56.5 55.5 128.5 83 q72 27.5 147 27.5 q76 0 148.5 -27.5 q72.5 -27.5 129 -83 q56.5 -55.5 91 -139 q34.5 -83.5 34.5 -195.5 l-269 0 q0 37 -11.5 65.5 q-11.5 28.5 -30.5 48 q-19 19.5 -42.5 29 q-23.5 9.5 -48.5 9.5 q-25 0 -49 -9.5 q-24 -9.5 -42.5 -29 q-18.5 -19.5 -30 -48 q-11.5 -28.5 -11.5 -65.5 l-269 0 Z" /><glyph glyph-name="Delta" unicode="&#x394;&#x2206;" d="M1393 0 l-1332 0 l286 1171 l746 0 l300 -1171 ZM590 216 l271 0 l-136 653 l-135 -653 Z" /><glyph glyph-name="mu" unicode="&#x3bc;" d="M174 991 l-120 23 l0 394 l781 0 l0 -394 l-120 -23 l1 -450 q14 -17 35.5 -37 q21.5 -20 51 -37 q29.5 -17 67.5 -28 q38 -11 85 -11 q60 0 101.5 15.5 q41.5 15.5 68 41 q26.5 25.5 41.5 57.5 q15 32 21.5 64.5 q6.5 32.5 8 63 q1.5 30.5 1.5 53.5 q0 7 0 22.5 q0 15.5 -0.5 36 q-0.5 20.5 -0.5 44 q0 23.5 0 46.5 l0 119 l-120 23 l0 394 l694 0 l0 -394 l-121 -23 q-1 -30 -1 -58.5 q0 -28.5 0 -54.5 l0 -155 q0 -203 -51.5 -347.5 q-51.5 -144.5 -140.5 -236.5 q-89 -92 -207.5 -134.5 q-118.5 -42.5 -253.5 -42.5 q-85 0 -160.5 20.5 q-75.5 20.5 -147.5 63.5 l0 -301 l-513 0 l0 1246 Z" /><glyph glyph-name="endash" unicode="&#x2013;" d="M623 896 l0 -256 l-512 0 l0 256 l512 0 Z" /><glyph glyph-name="emdash" unicode="&#x2014;" d="M809 896 l0 -256 l-698 0 l0 256 l698 0 Z" /><glyph glyph-name="quoteleft" unicode="&#x2018;" d="M747 640 l-640 0 l0 511 q0 118 44 199.5 q44 81.5 116 131.5 q72 50 164 72 q92 22 188 22 l0 -296 q-20 -1 -42.5 -7 q-22.5 -6 -41 -20 q-18.5 -14 -31 -38.5 q-12.5 -24.5 -12.5 -62.5 l255 0 l0 -512 Z" /><glyph glyph-name="quoteright" unicode="&#x2019;" d="M69 1536 l640 0 l0 -511 q0 -127 -44 -213.5 q-44 -86.5 -116 -140 q-72 -53.5 -164 -76.5 q-92 -23 -188 -23 l0 324 q19 1 41 7 q22 6 41 20 q19 14 32 38.5 q13 24.5 13 62.5 l-255 0 l0 512 Z" /><glyph glyph-name="quotesinglbase" unicode="&#x201a;" d="M103 512 l640 0 l0 -511 q0 -127 -44 -213.5 q-44 -86.5 -116 -140 q-72 -53.5 -164 -76.5 q-92 -23 -188 -23 l0 324 q19 1 41 7 q22 6 41 20 q19 14 32 38.5 q13 24.5 13 62.5 l-255 0 l0 512 Z" /><glyph glyph-name="quotedblleft" unicode="&#x201c;" d="M1515 640 l-640 0 l0 511 q0 118 44 199.5 q44 81.5 116 131.5 q72 50 164 72 q92 22 188 22 l0 -296 q-20 -1 -42.5 -7 q-22.5 -6 -41 -20 q-18.5 -14 -31 -38.5 q-12.5 -24.5 -12.5 -62.5 l255 0 l0 -512 ZM747 640 l-640 0 l0 511 q0 118 44 199.5 q44 81.5 116 131.5 q72 50 164 72 q92 22 188 22 l0 -296 q-20 -1 -42.5 -7 q-22.5 -6 -41 -20 q-18.5 -14 -31 -38.5 q-12.5 -24.5 -12.5 -62.5 l255 0 l0 -512 Z" /><glyph glyph-name="quotedblright" unicode="&#x201d;" d="M837 1536 l640 0 l0 -511 q0 -127 -44 -213.5 q-44 -86.5 -116 -140 q-72 -53.5 -164 -76.5 q-92 -23 -188 -23 l0 324 q19 1 41 7 q22 6 41 20 q19 14 32 38.5 q13 24.5 13 62.5 l-255 0 l0 512 ZM69 1536 l640 0 l0 -511 q0 -127 -44 -213.5 q-44 -86.5 -116 -140 q-72 -53.5 -164 -76.5 q-92 -23 -188 -23 l0 324 q19 1 41 7 q22 6 41 20 q19 14 32 38.5 q13 24.5 13 62.5 l-255 0 l0 512 Z" /><glyph glyph-name="quotedblbase" unicode="&#x201e;" d="M871 512 l640 0 l0 -511 q0 -127 -44 -213.5 q-44 -86.5 -116 -140 q-72 -53.5 -164 -76.5 q-92 -23 -188 -23 l0 324 q19 1 41 7 q22 6 41 20 q19 14 32 38.5 q13 24.5 13 62.5 l-255 0 l0 512 ZM103 512 l640 0 l0 -511 q0 -127 -44 -213.5 q-44 -86.5 -116 -140 q-72 -53.5 -164 -76.5 q-92 -23 -188 -23 l0 324 q19 1 41 7 q22 6 41 20 q19 14 32 38.5 q13 24.5 13 62.5 l-255 0 l0 512 Z" /><glyph glyph-name="dagger" unicode="&#x2020;" d="M60 1280 l256 0 l0 256 l384 0 l0 -256 l256 0 l0 -320 l-256 0 l0 -640 l-384 0 l0 640 l-256 0 l0 320 Z" /><glyph glyph-name="daggerdbl" unicode="&#x2021;" d="M107 1280 l256 0 l0 256 l384 0 l0 -256 l256 0 l0 -320 l-256 0 l0 -192 l256 0 l0 -320 l-256 0 l0 -128 l-384 0 l0 128 l-256 0 l0 320 l256 0 l0 192 l-256 0 l0 320 Z" /><glyph glyph-name="bullet" unicode="&#x2022;" d="M826 641 q0 -89 -33 -155.5 q-33 -66.5 -87.5 -110.5 q-54.5 -44 -124 -66.5 q-69.5 -22.5 -141.5 -22.5 q-72 0 -141 22 q-69 22 -122.5 66.5 q-53.5 44.5 -86.5 111 q-33 66.5 -33 155.5 q0 88 33 154 q33 66 86.5 110 q53.5 44 122.5 66 q69 22 141 22 q72 0 141.5 -22 q69.5 -22 124 -66 q54.5 -44 87.5 -110 q33 -66 33 -154 Z" /><glyph glyph-name="ellipsis" unicode="&#x2026;" d="M1878 512 l640 0 l0 -512 l-640 0 l0 512 ZM991 512 l640 0 l0 -512 l-640 0 l0 512 ZM104 512 l640 0 l0 -512 l-640 0 l0 512 Z" /><glyph glyph-name="perthousand" unicode="&#x2030;" d="M663 378 q-126 0 -236.5 34.5 q-110.5 34.5 -193 108 q-82.5 73.5 -130 189.5 q-47.5 116 -47.5 280 q0 158 47.5 269.5 q47.5 111.5 130 181.5 q82.5 70 193 102 q110.5 32 236.5 32 q125 0 236 -32 q111 -32 193.5 -102 q82.5 -70 130.5 -181.5 q48 -111.5 48 -269.5 q0 -164 -48 -280 q-48 -116 -130.5 -189.5 q-82.5 -73.5 -193 -108 q-110.5 -34.5 -236.5 -34.5 ZM1589 1536 l640 0 l-384 -1536 l-640 0 l384 1536 ZM663 1224 q-43 0 -73 -12.5 q-30 -12.5 -49 -32 q-19 -19.5 -29.5 -45 q-10.5 -25.5 -15 -51.5 q-4.5 -26 -5.5 -50.5 q-1 -24.5 -1 -42.5 q0 -18 1 -42.5 q1 -24.5 5.5 -51 q4.5 -26.5 15 -52 q10.5 -25.5 29.5 -46 q19 -20.5 49 -33 q30 -12.5 73 -12.5 q43 0 73 12.5 q30 12.5 49 33 q19 20.5 29.5 46 q10.5 25.5 15.5 52 q5 26.5 6 51 q1 24.5 1 42.5 q0 18 -1 42.5 q-1 24.5 -6 50.5 q-5 26 -15.5 51.5 q-10.5 25.5 -29.5 45 q-19 19.5 -49 32 q-30 12.5 -73 12.5 ZM4169 -42 q-126 0 -236.5 34.5 q-110.5 34.5 -193 108 q-82.5 73.5 -130 189.5 q-47.5 116 -47.5 280 q0 158 47.5 269.5 q47.5 111.5 130 181.5 q82.5 70 193 102 q110.5 32 236.5 32 q125 0 236 -32 q111 -32 193.5 -102 q82.5 -70 130.5 -181.5 q48 -111.5 48 -269.5 q0 -164 -48 -280 q-48 -116 -130.5 -189.5 q-82.5 -73.5 -193 -108 q-110.5 -34.5 -236.5 -34.5 ZM2797 -42 q-126 0 -236.5 34.5 q-110.5 34.5 -193 108 q-82.5 73.5 -130 189.5 q-47.5 116 -47.5 280 q0 158 47.5 269.5 q47.5 111.5 130 181.5 q82.5 70 193 102 q110.5 32 236.5 32 q125 0 236 -32 q111 -32 193.5 -102 q82.5 -70 130.5 -181.5 q48 -111.5 48 -269.5 q0 -164 -48 -280 q-48 -116 -130.5 -189.5 q-82.5 -73.5 -193 -108 q-110.5 -34.5 -236.5 -34.5 ZM4169 804 q-43 0 -73 -12.5 q-30 -12.5 -49 -32 q-19 -19.5 -29.5 -45 q-10.5 -25.5 -15 -51.5 q-4.5 -26 -5.5 -50.5 q-1 -24.5 -1 -42.5 q0 -18 1 -42.5 q1 -24.5 5.5 -51 q4.5 -26.5 15 -52 q10.5 -25.5 29.5 -46 q19 -20.5 49 -33 q30 -12.5 73 -12.5 q43 0 73 12.5 q30 12.5 49 33 q19 20.5 29.5 46 q10.5 25.5 15.5 52 q5 26.5 6 51 q1 24.5 1 42.5 q0 18 -1 42.5 q-1 24.5 -6 50.5 q-5 26 -15.5 51.5 q-10.5 25.5 -29.5 45 q-19 19.5 -49 32 q-30 12.5 -73 12.5 ZM2797 804 q-43 0 -73 -12.5 q-30 -12.5 -49 -32 q-19 -19.5 -29.5 -45 q-10.5 -25.5 -15 -51.5 q-4.5 -26 -5.5 -50.5 q-1 -24.5 -1 -42.5 q0 -18 1 -42.5 q1 -24.5 5.5 -51 q4.5 -26.5 15 -52 q10.5 -25.5 29.5 -46 q19 -20.5 49 -33 q30 -12.5 73 -12.5 q43 0 73 12.5 q30 12.5 49 33 q19 20.5 29.5 46 q10.5 25.5 15.5 52 q5 26.5 6 51 q1 24.5 1 42.5 q0 18 -1 42.5 q-1 24.5 -6 50.5 q-5 26 -15.5 51.5 q-10.5 25.5 -29.5 45 q-19 19.5 -49 32 q-30 12.5 -73 12.5 Z" /><glyph glyph-name="guilsinglleft" unicode="&#x2039;" d="M467 627 l334 -163 l0 -481 l-733 374 l0 690 l733 374 l0 -632 l-334 -162 Z" /><glyph glyph-name="guilsinglright" unicode="&#x203a;" d="M107 789 l0 632 l733 -374 l0 -690 l-733 -374 l0 481 l334 163 l-334 162 Z" /><glyph glyph-name="fraction" unicode="&#x2044;" d="M380 1536 l640 0 l-384 -1536 l-640 0 l384 1536 Z" /><glyph glyph-name="foursuperior" unicode="&#x2074;" d="M27 1085 l433 464 l432 27 l0 -491 l216 0 l0 -173 l-216 0 l0 -90 l87 -17 l0 -293 l-606 0 l0 293 l87 17 l0 90 l-433 0 l0 173 ZM276 1085 l184 0 l0 216 l-184 -216 Z" /><glyph glyph-name="Euro" unicode="&#x20ac;" d="M192 1001 q28 149 95.5 257.5 q67.5 108.5 168.5 179 q101 70.5 233 104.5 q132 34 289 34 q139 0 243.5 -20 q104.5 -20 182.5 -43 q92 -28 166 -63 l0 -477 l-281 0 q-48 88 -108.5 129 q-60.5 41 -123.5 41 q-69 0 -132.5 -36.5 q-63.5 -36.5 -105.5 -105.5 l238 0 l0 -166 l-291 0 q-1 -12 -1.5 -24 q-0.5 -12 -0.5 -25 q0 -13 0.5 -25.5 q0.5 -12.5 1.5 -23.5 l291 0 l0 -166 l-246 0 q40 -72 111 -104 q71 -32 173 -32 q88 0 209 28.5 q121 28.5 266 88.5 l0 -481 q-153 -54 -298.5 -82.5 q-145.5 -28.5 -285.5 -28.5 q-147 0 -278.5 37 q-131.5 37 -236 113 q-104.5 76 -177 190.5 q-72.5 114.5 -102.5 270.5 l-135 0 l0 166 l117 0 q-1 12 -1 24 q0 12 0 25 q0 12 0 24.5 q0 12.5 1 24.5 l-117 0 l0 166 l135 0 Z" /><glyph glyph-name="trademark" unicode="&#x2122;" d="M1526 1077 l0 -437 l-448 0 l0 253 l75 14 l0 362 l-75 14 l0 253 l448 0 l187 -344 l187 344 l448 0 l0 -253 l-75 -14 l0 -362 l75 -14 l0 -253 l-448 0 l0 437 l-187 -322 l-187 322 ZM995 1536 l0 -299 l-129 0 q-11 13 -24 26.5 q-13 13.5 -29.5 24 q-16.5 10.5 -36 17.5 q-19.5 7 -43.5 7 l0 -405 l75 -14 l0 -253 l-523 0 l0 253 l75 14 l0 405 q-22 0 -41.5 -7 q-19.5 -7 -36.5 -17.5 q-17 -10.5 -31 -24 q-14 -13.5 -24 -26.5 l-128 0 l0 299 l896 0 Z" /><glyph glyph-name="minus" unicode="&#x2212;" d="M116 896 l768 0 l0 -384 l-768 0 l0 384 Z" /><glyph glyph-name="integral" unicode="&#x222b;" d="M395 958 q0 89 9 171.5 q9 82.5 32.5 154.5 q23.5 72 63.5 131 q40 59 101.5 101.5 q61.5 42.5 147 65.5 q85.5 23 200.5 23 q87 0 165 -21.5 q78 -21.5 136 -72.5 q58 -51 92 -136 q34 -85 34 -211 q0 -8 -0.5 -16.5 q-0.5 -8.5 -0.5 -16.5 l-317 0 q3 8 5.5 25.5 q2.5 17.5 2.5 37.5 q0 16 -2 32 q-2 16 -7 29 q-5 13 -13 21 q-8 8 -20 8 q-15 0 -28 -29.5 q-13 -29.5 -13 -104.5 l0 -738 q0 -111 -35 -209.5 q-35 -98.5 -103 -172 q-68 -73.5 -168.5 -116 q-100.5 -42.5 -231.5 -42.5 q-87 0 -168.5 23.5 q-81.5 23.5 -144.5 69 q-63 45.5 -101 112 q-38 66.5 -38 152.5 q0 61 21 132 l314 0 q-1 -6 -3 -26 q-2 -20 -2 -43 q0 -14 1.5 -28 q1.5 -14 5 -25 q3.5 -11 10 -18 q6.5 -7 16.5 -7 q7 0 14 9.5 q7 9.5 12.5 32 q5.5 22.5 9 59.5 q3.5 37 3.5 93 l0 550 Z" /><glyph glyph-name="lozenge" unicode="&#x25ca;" d="M343 1536 l746 0 l300 -763 l-300 -772 l-746 0 l-286 772 l286 763 ZM721 303 l136 470 l-136 461 l-135 -461 l135 -470 Z" /><glyph glyph-name="uniF8A0" unicode="&#xf8a0;" d="" /><glyph glyph-name="uniF8FF" unicode="&#xf8ff;" d="" /></font>
</defs>
</svg>
