<?xml version="1.0" standalone="no"?><!DOCTYPE svg PUBLIC "-//W3C//DTD SVG 1.1//EN" "http://www.w3.org/Graphics/SVG/1.1/DTD/svg11.dtd" ><svg xmlns="http://www.w3.org/2000/svg"><metadata></metadata><defs><font id="FontForge 2.0 : Geo Oblique : 27-11-2010" horiz-adv-x="1024"><font-face font-family="Geo" font-weight="500" font-stretch="normal" units-per-em="1024" panose-1="2 0 6 3 0 0 0 0 0 0" ascent="821" descent="-225" x-height="0" bbox="-89 -225 1030 821" underline-thickness="20" underline-position="-146" unicode-range="U+0020-fb02" /><missing-glyph horiz-adv-x="1024"  /><glyph glyph-name=".null" unicode="" d="" /><glyph glyph-name="nonmarkingreturn" unicode="" d="" /><glyph glyph-name="space" unicode=" " d="" /><glyph glyph-name="exclam" unicode="!" d="M140 226 l71 450 l-76 0 l-70 -451 l75 1 ZM104 0 l21 133 l-76 0 l-20 -133 l75 0 Z" /><glyph glyph-name="quotedbl" unicode="&quot;" d="M36 676 l-31 -195 l76 0 l31 195 l-76 0 ZM138 676 l-30 -195 l75 0 l31 195 l-76 0 Z" /><glyph glyph-name="numbersign" unicode="#" d="M239 410 l13 83 l-64 0 l-13 -83 l64 0 ZM219 287 l8 52 l-62 0 l-8 -52 l-81 0 l8 52 l-62 0 l11 71 l62 0 l14 83 l-63 0 l11 70 l62 0 l11 73 l81 0 l-11 -73 l62 0 l11 73 l81 0 l-11 -73 l52 0 l-11 -70 l-52 0 l-14 -83 l53 0 l-12 -71 l-51 0 l-8 -52 l-81 0 Z" /><glyph glyph-name="dollar" unicode="$" d="M249 75 l44 0 l15 95 l-43 6 l-16 -101 ZM225 376 l-42 0 l-15 -100 l41 -6 l16 106 ZM327 563 l-19 -112 l124 0 l-19 -123 l-76 0 l8 48 l-48 0 l-18 -116 l118 -17 l-38 -242 l-121 0 l-14 -83 l-71 0 l13 82 l-122 0 l17 113 l76 0 l-6 -38 l46 0 l19 112 l-120 18 l39 246 l122 0 l18 112 l72 0 Z" /><glyph glyph-name="percent" unicode="%" d="M446 589 l-430 -585 l60 -38 l430 585 l-60 38 ZM34 358 l33 209 l190 0 l-33 -209 l-190 0 ZM195 523 l-77 -1 l-20 -121 l77 0 l20 122 ZM284 0 l32 209 l191 0 l-33 -209 l-190 0 ZM444 164 l-76 0 l-19 -121 l77 0 l18 121 Z" /><glyph glyph-name="ampersand" unicode="&amp;" d="M398 410 l-13 -82 l51 0 l-11 -71 l-51 0 l-40 -257 l-297 0 l51 328 l72 0 l39 245 l170 0 l-12 -71 l-90 0 l-27 -174 l69 0 l14 82 l75 0 ZM270 77 l28 179 l-141 0 l-28 -179 l141 0 Z" /><glyph glyph-name="quotesingle" unicode="&#39;" d="M36 676 l-31 -195 l76 0 l31 195 l-76 0 Z" /><glyph glyph-name="parenleft" unicode="(" d="M166 -113 l-147 0 l125 789 l147 0 l-13 -82 l-71 0 l-98 -625 l70 0 l-13 -82 Z" /><glyph glyph-name="parenright" unicode=")" d="M19 -113 l147 0 l125 789 l-147 0 l-13 -82 l71 0 l-99 -625 l-70 0 l-14 -82 Z" /><glyph glyph-name="asterisk" unicode="*" d="M89 256 l19 113 l-80 -52 l-30 72 l88 38 l-74 54 l51 62 l65 -41 l18 112 l72 0 l-18 -112 l79 41 l40 -65 l-90 -51 l76 -38 l-62 -72 l-64 52 l-18 -113 l-72 0 Z" /><glyph glyph-name="plus" unicode="+" d="M164 0 l33 205 l-174 0 l11 71 l174 0 l28 175 l81 0 l-27 -175 l184 0 l-11 -71 l-184 0 l-33 -205 l-82 0 Z" /><glyph glyph-name="comma" unicode="," d="M35 -82 l84 205 l76 0 l-84 -205 l-76 0 Z" /><glyph glyph-name="hyphen" unicode="-" d="M296 205 l12 71 l-276 0 l-13 -71 l277 0 Z" /><glyph glyph-name="period" unicode="." d="M92 123 l-20 -123 l75 0 l21 123 l-76 0 Z" /><glyph glyph-name="slash" unicode="/" d="M234 675 l-300 -811 l71 -17 l300 811 l-71 17 Z" /><glyph glyph-name="zero" unicode="0" d="M61 0 l72 451 l318 0 l-72 -451 l-318 0 ZM362 377 l-161 -1 l-48 -304 l161 0 l48 305 Z" /><glyph glyph-name="one" unicode="1" d="M321 0 l-76 0 l60 379 l-173 0 l11 71 l249 1 l-71 -451 Z" /><glyph glyph-name="two" unicode="2" d="M391 75 l-12 -75 l-316 1 l13 78 l267 197 l15 100 l-161 0 l-14 -89 l-75 0 l25 164 l318 0 l-36 -226 l-220 -150 l196 0 Z" /><glyph glyph-name="three" unicode="3" d="M329 196 l-19 -121 l-160 0 l9 58 l-76 0 l-22 -133 l318 0 l41 256 l-116 0 l132 116 l13 78 l-316 1 l-12 -75 l196 0 l-133 -120 l-10 -60 l155 0 Z" /><glyph glyph-name="four" unicode="4" d="M287 75 l35 219 l-162 -219 l127 0 ZM338 -102 l-80 0 l16 102 l-225 1 l12 78 l285 372 l80 0 l-59 -376 l61 0 l-12 -75 l-62 0 l-16 -102 Z" /><glyph glyph-name="five" unicode="5" d="M329 196 l-19 -121 l-160 0 l9 58 l-76 0 l-22 -133 l318 0 l44 276 l-229 0 l15 96 l229 1 l13 77 l-318 0 l-41 -254 l237 0 Z" /><glyph glyph-name="six" unicode="6" d="M133 450 l318 0 l-13 -77 l-241 -1 l-16 -96 l242 0 l-44 -276 l-318 0 l72 450 ZM329 196 l-161 0 l-18 -121 l160 0 l19 121 Z" /><glyph glyph-name="seven" unicode="7" d="M437 372 l13 78 l-316 0 l-12 -78 l227 0 l-235 -371 l110 -1 l213 372 Z" /><glyph glyph-name="eight" unicode="8" d="M183 255 l161 0 l18 121 l-160 0 l-19 -121 ZM170 174 l-15 -96 l160 1 l16 95 l-161 0 ZM133 451 l318 0 l-72 -451 l-318 1 l72 450 Z" /><glyph glyph-name="nine" unicode="9" d="M379 0 l-318 1 l13 77 l241 1 l16 95 l-242 0 l44 277 l318 0 l-72 -451 ZM183 255 l161 0 l18 121 l-160 0 l-19 -121 Z" /><glyph glyph-name="colon" unicode=":" d="M66 123 l-20 -123 l76 0 l19 123 l-75 0 ZM118 451 l-20 -123 l76 0 l20 123 l-76 0 Z" /><glyph glyph-name="semicolon" unicode=";" d="M124 451 l-20 -123 l76 0 l20 123 l-76 0 ZM9 -82 l83 205 l76 0 l-83 -205 l-76 0 Z" /><glyph glyph-name="less" unicode="&lt;" d="M10 236 l465 231 l52 -68 l-350 -163 l299 -164 l-75 -68 l-391 232 Z" /><glyph glyph-name="equal" unicode="=" d="M470 246 l11 71 l-440 0 l-11 -71 l440 0 ZM451 123 l11 72 l-440 0 l-12 -72 l441 0 Z" /><glyph glyph-name="greater" unicode="&gt;" d="M502 236 l-391 231 l-75 -68 l299 -163 l-350 -164 l52 -68 l465 232 Z" /><glyph glyph-name="question" unicode="?" d="M132 635 l315 0 l-55 -348 l-135 0 l-14 -92 l-78 0 l25 162 l140 0 l32 204 l-242 0 l12 74 ZM154 123 l-20 -123 l76 0 l19 123 l-75 0 Z" /><glyph glyph-name="at" unicode="@" d="M454 -154 l-420 0 l96 605 l420 0 l-72 -451 l-254 0 l42 266 l174 0 l19 113 l-259 0 l-72 -453 l339 0 l-13 -80 ZM410 74 l19 119 l-100 0 l-20 -119 l101 0 Z" /><glyph glyph-name="A" unicode="a" d="M191 502 l-27 -174 l162 0 l27 174 l-162 0 ZM354 0 l-80 0 l40 256 l-161 0 l-40 -256 l-76 0 l90 573 l317 0 l-90 -573 Z" /><glyph glyph-name="B" unicode="b" d="M191 502 l-25 -164 l121 0 l25 164 l-121 0 ZM37 0 l90 573 l276 0 l-36 -235 l41 0 l-54 -338 l-317 0 ZM125 77 l162 0 l29 189 l-161 0 l-30 -189 Z" /><glyph glyph-name="C" unicode="c" d="M357 499 l-161 0 l-68 -427 l229 0 l-11 -72 l-309 0 l90 573 l317 0 l-25 -163 l-76 0 l14 89 Z" /><glyph glyph-name="D" unicode="d" d="M125 78 l131 0 l24 24 l59 369 l-16 30 l-132 0 l-66 -423 ZM37 0 l90 573 l225 0 l72 -133 l-50 -317 l-122 -123 l-215 0 Z" /><glyph glyph-name="E" unicode="e" d="M367 78 l-13 -78 l-317 0 l90 573 l317 1 l-11 -72 l-242 0 l-19 -124 l242 0 l-12 -72 l-241 0 l-36 -228 l242 0 Z" /><glyph glyph-name="F" unicode="f" d="M113 0 l-76 0 l90 573 l317 1 l-11 -72 l-242 0 l-19 -124 l242 0 l-12 -72 l-241 0 l-48 -306 Z" /><glyph glyph-name="G" unicode="g" d="M240 379 l174 0 l-60 -379 l-317 0 l90 573 l317 0 l-11 -75 l-237 0 l-68 -426 l161 0 l37 236 l-98 0 l12 71 Z" /><glyph glyph-name="H" unicode="h" d="M334 379 l-162 0 l31 194 l-76 0 l-90 -573 l76 0 l48 307 l162 0 l-49 -307 l80 0 l90 573 l-79 0 l-31 -194 Z" /><glyph glyph-name="I" unicode="i" d="M158 500 l-73 0 l11 73 l217 0 l-11 -73 l-69 0 l-67 -426 l74 0 l-12 -74 l-216 0 l12 74 l66 0 l68 426 Z" /><glyph glyph-name="J" unicode="j" d="M160 573 l77 0 l-115 -727 l-179 0 l11 74 l102 0 l104 653 Z" /><glyph glyph-name="K" unicode="k" d="M385 0 l-153 302 l233 271 l-109 0 l-192 -245 l39 245 l-76 0 l-90 -573 l76 0 l40 256 l15 0 l99 -256 l118 0 Z" /><glyph glyph-name="L" unicode="l" d="M125 78 l242 0 l-13 -78 l-317 0 l90 573 l76 1 l-78 -496 Z" /><glyph glyph-name="M" unicode="m" d="M354 0 l-82 0 l79 502 l-160 0 l-78 -502 l-76 0 l90 573 l553 0 l-90 -573 l-80 0 l79 502 l-156 0 l-79 -502 Z" /><glyph glyph-name="N" unicode="n" d="M200 574 l-73 -1 l-90 -573 l76 0 l56 358 l125 -358 l60 0 l90 573 l-79 0 l-51 -317 l-114 318 Z" /><glyph glyph-name="O" unicode="o" d="M125 78 l162 0 l66 423 l-162 0 l-66 -423 ZM37 0 l90 573 l317 0 l-90 -573 l-317 0 Z" /><glyph glyph-name="P" unicode="p" d="M374 256 l-221 0 l-39 -256 l-77 0 l90 573 l297 0 l-50 -317 ZM305 328 l28 174 l-142 0 l-27 -174 l141 0 Z" /><glyph glyph-name="Q" unicode="q" d="M264 -154 l-76 0 l25 154 l-164 0 l90 573 l318 0 l-90 -573 l-78 0 l-25 -154 ZM299 78 l67 424 l-162 -1 l-67 -423 l162 0 Z" /><glyph glyph-name="R" unicode="r" d="M385 0 l-100 0 l-100 256 l-32 0 l-39 -256 l-77 0 l90 573 l297 0 l-50 -317 l-88 0 l99 -256 ZM305 328 l28 174 l-142 0 l-27 -174 l141 0 Z" /><glyph glyph-name="S" unicode="s" d="M124 75 l14 89 l-76 0 l-25 -164 l315 1 l38 242 l-214 136 l20 120 l161 0 l-14 -89 l76 0 l25 163 l-317 0 l-42 -266 l216 -137 l-15 -95 l-162 0 Z" /><glyph glyph-name="T" unicode="t" d="M236 0 l-76 0 l79 500 l-124 0 l11 73 l318 0 l-11 -73 l-119 0 l-78 -500 Z" /><glyph glyph-name="U" unicode="u" d="M444 573 l-90 -573 l-317 0 l90 573 l76 0 l-79 -501 l162 0 l79 501 l79 0 Z" /><glyph glyph-name="V" unicode="v" d="M455 573 l-193 -573 l-164 0 l-12 573 l96 0 l-6 -491 l29 0 l149 491 l101 0 Z" /><glyph glyph-name="W" unicode="w" d="M362 573 l82 0 l-78 -501 l159 0 l79 501 l76 0 l-90 -573 l-553 0 l90 573 l80 0 l-79 -501 l156 0 l78 501 Z" /><glyph glyph-name="X" unicode="x" d="M406 0 l-111 0 l-52 256 l-19 0 l-132 -256 l-106 0 l167 307 l-67 266 l107 0 l43 -245 l18 0 l121 245 l110 0 l-150 -266 l71 -307 Z" /><glyph glyph-name="Y" unicode="y" d="M444 573 l-90 -573 l-317 0 l11 72 l238 0 l17 112 l-235 0 l61 389 l74 0 l-49 -315 l161 0 l50 315 l79 0 Z" /><glyph glyph-name="Z" unicode="z" d="M148 72 l209 0 l-11 -72 l-309 0 l11 72 l305 427 l-237 0 l11 74 l317 0 l-12 -77 l-284 -424 Z" /><glyph glyph-name="bracketleft" unicode="[" d="M180 -195 l-249 0 l138 871 l248 0 l-12 -82 l-173 0 l-113 -707 l174 0 l-13 -82 Z" /><glyph glyph-name="backslash" unicode="\" d="M136 675 l44 -811 l-77 -17 l-44 811 l77 17 Z" /><glyph glyph-name="bracketright" unicode="]" d="M-89 -195 l249 0 l137 871 l-249 0 l-12 -82 l173 0 l-113 -707 l-173 0 l-12 -82 Z" /><glyph glyph-name="asciicircum" unicode="^" d="M241 680 l116 -139 l-63 -54 l-70 93 l-98 -93 l-47 54 l162 139 Z" /><glyph glyph-name="underscore" unicode="_" d="M460 -113 l12 72 l-440 0 l-13 -72 l441 0 Z" /><glyph glyph-name="grave" unicode="`" d="M153 676 l183 -133 l-65 -62 l-183 133 l65 62 Z" /><glyph glyph-name="a" unicode="a" d="M326 266 l18 113 l-238 0 l12 72 l317 0 l-71 -451 l-316 0 l42 266 l236 0 ZM314 193 l-161 0 l-19 -119 l162 0 l18 119 Z" /><glyph glyph-name="b" unicode="b" d="M175 451 l242 0 l-71 -451 l-317 0 l106 676 l76 0 l-36 -225 ZM116 74 l162 1 l48 304 l-162 0 l-48 -305 Z" /><glyph glyph-name="c" unicode="c" d="M347 376 l-162 0 l-48 -304 l230 0 l-12 -72 l-309 0 l72 451 l317 0 l-25 -164 l-76 0 l13 89 Z" /><glyph glyph-name="d" unicode="d" d="M341 451 l36 225 l76 0 l-107 -676 l-317 0 l70 451 l242 0 ZM282 74 l48 305 l-162 0 l-48 -304 l162 -1 Z" /><glyph glyph-name="e" unicode="e" d="M156 184 l-19 -112 l238 0 l-11 -72 l-318 0 l72 451 l315 0 l-42 -267 l-235 0 ZM167 258 l162 0 l18 119 l-162 0 l-18 -119 Z" /><glyph glyph-name="f" unicode="f" d="M102 450 l99 0 l30 195 l220 0 l-12 -71 l-143 0 l-20 -124 l144 0 l-11 -71 l-144 0 l-60 -379 l-76 0 l60 379 l-98 0 l11 71 Z" /><glyph glyph-name="g" unicode="g" d="M298 0 l-17 -113 l-238 0 l-11 -71 l317 0 l101 635 l-316 0 l-72 -451 l236 0 ZM310 74 l-162 0 l49 303 l161 0 l-48 -303 Z" /><glyph glyph-name="h" unicode="h" d="M346 0 l71 451 l-242 0 l36 225 l-76 0 l-106 -676 l75 0 l60 379 l162 0 l-60 -379 l80 0 Z" /><glyph glyph-name="i" unicode="i" d="M99 450 l-70 -450 l75 0 l71 451 l-76 -1 ZM135 676 l-20 -133 l75 0 l21 133 l-76 0 Z" /><glyph glyph-name="j" unicode="j" d="M146 676 l76 0 l-20 -133 l-76 0 l20 133 ZM-66 -154 l13 76 l81 0 l83 528 l75 0 l-95 -604 l-157 0 Z" /><glyph glyph-name="k" unicode="k" d="M377 0 l-163 233 l223 217 l-108 0 l-184 -191 l66 417 l-76 0 l-106 -676 l75 0 l31 198 l16 0 l108 -198 l118 0 Z" /><glyph glyph-name="l" unicode="l" d="M135 676 l-106 -676 l75 0 l107 676 l-76 0 Z" /><glyph glyph-name="m" unicode="m" d="M364 0 l-82 0 l60 379 l-160 0 l-60 -379 l-76 0 l72 451 l553 0 l-72 -451 l-80 0 l61 379 l-156 0 l-60 -379 Z" /><glyph glyph-name="n" unicode="n" d="M364 0 l71 451 l-317 0 l-72 -451 l76 0 l60 379 l162 0 l-60 -379 l80 0 Z" /><glyph glyph-name="o" unicode="o" d="M46 0 l72 451 l317 0 l-71 -451 l-318 0 ZM347 377 l-162 -1 l-48 -304 l162 0 l48 305 Z" /><glyph glyph-name="p" unicode="p" d="M140 0 l242 0 l71 451 l-318 0 l-106 -676 l75 0 l36 225 ZM200 377 l161 -1 l-48 -304 l-161 0 l48 305 Z" /><glyph glyph-name="q" unicode="q" d="M306 0 l-241 0 l70 451 l318 0 l-107 -676 l-76 0 l36 225 ZM366 377 l-162 -1 l-48 -304 l161 0 l49 305 Z" /><glyph glyph-name="r" unicode="r" d="M296 377 l-111 -1 l-59 -376 l-80 0 l72 451 l266 0 l-26 -164 l-75 0 l13 90 Z" /><glyph glyph-name="s" unicode="s" d="M134 75 l6 38 l-75 0 l-19 -113 l315 1 l37 231 l-226 55 l13 89 l162 0 l-13 -89 l76 0 l25 164 l-317 0 l-38 -236 l229 -55 l-13 -85 l-162 0 Z" /><glyph glyph-name="t" unicode="t" d="M312 0 l-184 0 l59 379 l-92 0 l13 72 l92 0 l20 133 l76 0 l-21 -133 l109 0 l-12 -72 l-109 0 l-48 -307 l109 0 l-12 -72 Z" /><glyph glyph-name="u" unicode="u" d="M435 451 l-71 -451 l-318 0 l72 451 l76 0 l-61 -379 l162 0 l60 379 l80 0 Z" /><glyph glyph-name="v" unicode="v" d="M456 451 l-195 -451 l-143 0 l-51 451 l102 0 l21 -379 l29 0 l142 379 l95 0 Z" /><glyph glyph-name="w" unicode="w" d="M353 451 l82 0 l-60 -379 l160 0 l60 379 l76 0 l-72 -451 l-553 0 l72 451 l80 0 l-61 -379 l156 0 l60 379 Z" /><glyph glyph-name="x" unicode="x" d="M415 0 l-101 0 l-72 184 l-19 0 l-132 -184 l-96 0 l167 236 l-85 215 l96 0 l63 -185 l18 0 l122 185 l100 0 l-152 -215 l91 -236 Z" /><glyph glyph-name="y" unicode="y" d="M450 451 l-101 -635 l-317 0 l11 71 l238 0 l17 113 l-236 0 l72 451 l74 0 l-60 -377 l162 0 l60 377 l80 0 Z" /><glyph glyph-name="z" unicode="z" d="M158 72 l209 0 l-12 -72 l-309 0 l11 72 l286 304 l-238 0 l13 75 l317 0 l-12 -78 l-265 -301 Z" /><glyph glyph-name="braceleft" unicode="{" d="M8 296 l111 0 l60 380 l249 0 l-13 -82 l-173 0 l-111 -696 l173 0 l-13 -82 l-249 0 l63 399 l-110 0 l13 81 Z" /><glyph glyph-name="bar" unicode="|" d="M147 676 l-131 -830 l76 0 l131 830 l-76 0 Z" /><glyph glyph-name="braceright" unicode="}" d="M347 296 l-110 0 l60 380 l-249 0 l-13 -82 l173 0 l-111 -696 l-173 0 l-13 -82 l249 0 l63 399 l111 0 l13 81 Z" /><glyph glyph-name="asciitilde" unicode="~" d="M119 318 l100 0 l-17 -108 l254 0 l28 184 l-77 0 l-17 -103 l-95 0 l16 103 l-256 0 l-28 -184 l74 0 l18 108 Z" /><glyph glyph-name="nbspace" unicode=" " d="" /><glyph glyph-name="exclamdown" unicode="¡" d="M99 450 l-70 -450 l75 0 l71 451 l-76 -1 ZM135 676 l-20 -133 l75 0 l21 133 l-76 0 Z" /><glyph glyph-name="cent" unicode="¢" d="M231 376 l-48 0 l-48 -304 l48 0 l48 304 ZM407 287 l-76 0 l14 89 l-42 0 l-48 -304 l110 0 l-12 -72 l-109 0 l-14 -82 l-71 0 l13 82 l-128 0 l71 451 l128 0 l18 112 l72 0 l-19 -112 l118 0 l-25 -164 Z" /><glyph glyph-name="sterling" unicode="£" d="M57 71 l99 0 l21 134 l-98 0 l11 70 l98 0 l28 176 l219 0 l-11 -71 l-143 0 l-17 -105 l144 0 l-12 -70 l-143 0 l-22 -134 l149 0 l-11 -71 l-323 0 l11 71 Z" /><glyph glyph-name="yen" unicode="¥" d="M451 123 l-67 0 l-19 -123 l-318 0 l11 72 l238 0 l8 51 l-294 0 l12 72 l293 0 l9 51 l-294 0 l11 71 l294 0 l11 72 l-235 0 l28 184 l74 0 l-17 -110 l161 0 l18 110 l80 0 l-40 -256 l66 0 l-11 -71 l-67 0 l-8 -51 l67 0 l-11 -72 Z" /><glyph glyph-name="brokenbar" unicode="¦" d="M72 205 l-55 -348 l76 0 l54 348 l-75 0 ZM146 676 l-54 -348 l76 0 l54 348 l-76 0 Z" /><glyph glyph-name="section" unicode="¤§" d="M245 258 l-50 13 l-56 -24 l-10 -65 l42 -11 l63 23 l11 64 ZM284 179 l-73 -22 l67 -17 l-25 -152 l-208 -1 l11 74 l50 0 l-4 -25 l108 0 l8 56 l-150 37 l20 133 l63 23 l-57 13 l25 156 l210 0 l-18 -109 l-50 0 l9 59 l-106 0 l-9 -59 l149 -36 q-2 -14 -9 -58 q-7 -44 -11 -72 Z" /><glyph glyph-name="dieresis" unicode="¨¬" d="M92 676 l-20 -133 l75 0 l21 133 l-76 0 ZM276 676 l-20 -133 l76 0 l20 133 l-76 0 Z" /><glyph glyph-name="copyright" unicode="©" d="M380 355 l-59 0 l-29 -181 l117 0 l-12 -72 l-186 0 l51 328 l195 0 l-23 -143 l-65 0 l11 68 ZM117 2 l346 0 l83 519 l-346 0 l-83 -519 ZM29 -76 l106 670 l502 0 l-107 -670 l-501 0 Z" /><glyph glyph-name="guillemotleft" unicode="«" d="M51 236 l268 231 l47 -57 l-199 -174 l143 -175 l-64 -57 l-195 232 ZM256 236 l268 231 l46 -57 l-198 -174 l143 -175 l-64 -57 l-195 232 Z" /><glyph glyph-name="registered" unicode="®" d="M117 2 l346 0 l83 519 l-346 0 l-83 -519 ZM29 -76 l106 670 l502 0 l-107 -670 l-501 0 ZM446 102 l-79 0 l-48 134 l-22 0 l-21 -134 l-65 0 l51 328 l184 0 l-30 -194 l-37 0 l67 -134 ZM365 287 l13 82 l-60 0 l-13 -82 l60 0 Z" /><glyph glyph-name="plusminus" unicode="±" d="M421 -123 l11 72 l-440 0 l-11 -72 l440 0 ZM174 0 l32 205 l-174 0 l11 71 l174 0 l28 175 l82 0 l-28 -175 l184 0 l-11 -71 l-184 0 l-32 -205 l-82 0 Z" /><glyph glyph-name="acute" unicode="´" d="M302 676 l-226 -133 l46 -62 l226 133 l-46 62 Z" /><glyph glyph-name="paragraph" unicode="¶" d="M77 256 l169 0 l-40 -256 l77 0 l90 573 l-246 0 l-50 -317 ZM168 328 l28 174 l89 0 l-28 -174 l-89 0 Z" /><glyph glyph-name="cedilla" unicode="¸" d="M178 -174 l94 205 l76 0 l-84 -205 l-86 0 Z" /><glyph glyph-name="guillemotright" unicode="»" d="M543 236 l-195 231 l-64 -57 l143 -174 l-199 -175 l46 -57 l269 232 ZM338 236 l-195 231 l-64 -57 l143 -174 l-198 -175 l46 -57 l268 232 Z" /><glyph glyph-name="questiondown" unicode="¿" d="M346 0 l-315 0 l55 348 l135 0 l15 92 l77 0 l-25 -162 l-140 0 l-32 -204 l242 0 l-12 -74 ZM325 512 l19 123 l-76 0 l-19 -123 l76 0 Z" /><glyph glyph-name="Agrave" unicode="à" d="M172 799 l183 -133 l-64 -62 l-183 133 l64 62 ZM191 502 l-27 -174 l162 0 l27 174 l-162 0 ZM354 0 l-80 0 l40 256 l-161 0 l-40 -256 l-76 0 l90 573 l317 0 l-90 -573 Z" /><glyph glyph-name="Aacute" unicode="á" d="M191 502 l-27 -174 l162 0 l27 174 l-162 0 ZM354 0 l-80 0 l40 256 l-161 0 l-40 -256 l-76 0 l90 573 l317 0 l-90 -573 ZM324 809 l-227 -133 l46 -62 l226 134 l-45 61 Z" /><glyph glyph-name="Acircumflex" unicode="â" d="M260 803 l117 -139 l-64 -54 l-69 92 l-99 -92 l-47 54 l162 139 ZM191 502 l-27 -174 l162 0 l27 174 l-162 0 ZM354 0 l-80 0 l40 256 l-161 0 l-40 -256 l-76 0 l90 573 l317 0 l-90 -573 Z" /><glyph glyph-name="Atilde" unicode="ã" d="M186 725 l80 0 l-13 -87 l203 0 l23 147 l-62 0 l-14 -83 l-75 0 l13 83 l-205 0 l-23 -147 l59 0 l14 87 ZM191 502 l-27 -174 l162 0 l27 174 l-162 0 ZM354 0 l-80 0 l40 256 l-161 0 l-40 -256 l-76 0 l90 573 l317 0 l-90 -573 Z" /><glyph glyph-name="Adieresis" unicode="ä" d="M105 758 l-21 -133 l76 0 l21 133 l-76 0 ZM290 758 l-22 -133 l76 0 l22 133 l-76 0 ZM191 502 l-27 -174 l162 0 l27 174 l-162 0 ZM354 0 l-80 0 l40 256 l-161 0 l-40 -256 l-76 0 l90 573 l317 0 l-90 -573 Z" /><glyph glyph-name="Aring" unicode="å" d="M82 612 l33 209 l190 0 l-33 -209 l-190 0 ZM244 777 l-78 -1 l-19 -121 l77 0 l20 122 ZM191 502 l-27 -174 l162 0 l27 174 l-162 0 ZM354 0 l-80 0 l40 256 l-161 0 l-40 -256 l-76 0 l90 573 l317 0 l-90 -573 Z" /><glyph glyph-name="AE" unicode="æ" d="M274 0 l40 255 l-161 0 l-40 -255 l-76 0 l90 573 q186 0 563 1 l-11 -72 l-242 0 l-27 -175 l241 0 l-11 -72 l-242 0 l-27 -177 l241 0 l-12 -78 l-326 0 ZM326 327 l27 175 l-162 0 l-27 -175 l162 0 Z" /><glyph glyph-name="Ccedilla" unicode="ç" d="M293 0 l-72 -174 l-86 0 l80 174 l-165 0 l91 573 l318 0 l-27 -163 l-76 0 l15 89 l-162 0 l-68 -427 l230 0 l-12 -72 l-66 0 Z" /><glyph glyph-name="Egrave" unicode="è" d="M170 788 l184 -133 l-65 -61 l-184 133 l65 61 ZM367 78 l-13 -78 l-317 0 l90 573 l317 1 l-11 -72 l-242 0 l-19 -124 l242 0 l-12 -72 l-241 0 l-36 -228 l242 0 Z" /><glyph glyph-name="Eacute" unicode="é" d="M367 78 l-13 -78 l-317 0 l90 573 l317 1 l-11 -72 l-242 0 l-19 -124 l242 0 l-12 -72 l-241 0 l-36 -228 l242 0 ZM322 799 l-227 -133 l46 -62 l227 133 l-46 62 Z" /><glyph glyph-name="Ecircumflex" unicode="ê" d="M367 78 l-13 -78 l-317 0 l90 573 l317 1 l-11 -72 l-242 0 l-19 -124 l242 0 l-12 -72 l-241 0 l-36 -228 l242 0 ZM260 803 l117 -139 l-64 -54 l-69 92 l-99 -92 l-47 54 l162 139 Z" /><glyph glyph-name="Edieresis" unicode="ë" d="M103 748 l-20 -134 l76 0 l20 134 l-76 0 ZM288 748 l-21 -134 l76 0 l21 134 l-76 0 ZM367 78 l-13 -78 l-317 0 l90 573 l317 1 l-11 -72 l-242 0 l-19 -124 l242 0 l-12 -72 l-241 0 l-36 -228 l242 0 Z" /><glyph glyph-name="Igrave" unicode="ì" d="M111 799 l183 -133 l-65 -62 l-183 133 l65 62 ZM158 500 l-73 0 l11 73 l217 0 l-11 -73 l-69 0 l-67 -426 l74 0 l-12 -74 l-216 0 l12 74 l66 0 l68 426 Z" /><glyph glyph-name="Iacute" unicode="í" d="M158 500 l-73 0 l11 73 l217 0 l-11 -73 l-69 0 l-67 -426 l74 0 l-12 -74 l-216 0 l12 74 l66 0 l68 426 ZM260 799 l-226 -133 l46 -62 l226 133 l-46 62 Z" /><glyph glyph-name="Icircumflex" unicode="î" d="M158 500 l-73 0 l11 73 l217 0 l-11 -73 l-69 0 l-67 -426 l74 0 l-12 -74 l-216 0 l12 74 l66 0 l68 426 ZM188 803 l117 -139 l-63 -54 l-70 92 l-98 -92 l-47 54 l161 139 Z" /><glyph glyph-name="Idieresis" unicode="ï" d="M65 758 l-22 -133 l76 0 l21 133 l-75 0 ZM249 758 l-22 -133 l76 0 l22 133 l-76 0 ZM158 500 l-73 0 l11 73 l217 0 l-11 -73 l-69 0 l-67 -426 l74 0 l-12 -74 l-216 0 l12 74 l66 0 l68 426 Z" /><glyph glyph-name="Ntilde" unicode="ñ" d="M186 725 l80 0 l-13 -87 l203 0 l23 147 l-62 0 l-14 -83 l-75 0 l13 83 l-205 0 l-23 -147 l59 0 l14 87 ZM200 574 l-73 -1 l-90 -573 l76 0 l56 358 l125 -358 l60 0 l90 573 l-79 0 l-51 -317 l-114 318 Z" /><glyph glyph-name="Ograve" unicode="ò" d="M170 788 l184 -133 l-65 -61 l-184 133 l65 61 ZM125 78 l162 0 l66 423 l-162 0 l-66 -423 ZM37 0 l90 573 l317 0 l-90 -573 l-317 0 Z" /><glyph glyph-name="Oacute" unicode="ó" d="M125 78 l162 0 l66 423 l-162 0 l-66 -423 ZM37 0 l90 573 l317 0 l-90 -573 l-317 0 ZM322 799 l-227 -133 l46 -62 l227 133 l-46 62 Z" /><glyph glyph-name="Ocircumflex" unicode="ô" d="M125 78 l162 0 l66 423 l-162 0 l-66 -423 ZM37 0 l90 573 l317 0 l-90 -573 l-317 0 ZM260 803 l117 -139 l-64 -54 l-69 92 l-99 -92 l-47 54 l162 139 Z" /><glyph glyph-name="Otilde" unicode="õ" d="M186 725 l80 0 l-13 -87 l203 0 l23 147 l-62 0 l-14 -83 l-75 0 l13 83 l-205 0 l-23 -147 l59 0 l14 87 ZM125 78 l162 0 l66 423 l-162 0 l-66 -423 ZM37 0 l90 573 l317 0 l-90 -573 l-317 0 Z" /><glyph glyph-name="Odieresis" unicode="ö" d="M125 78 l162 0 l66 423 l-162 0 l-66 -423 ZM37 0 l90 573 l317 0 l-90 -573 l-317 0 Z" /><glyph glyph-name="multiply" unicode="×" d="M353 44 l-106 127 l-147 -127 l-49 58 l148 126 l-107 127 l67 59 l106 -127 l148 127 l48 -59 l-147 -127 l107 -126 l-68 -58 Z" /><glyph glyph-name="Oslash" unicode="¯ø" d="M291 501 l-101 0 l-61 -382 l162 382 ZM187 78 l98 0 l58 366 l-156 -366 ZM35 0 l91 573 l196 0 l30 72 l76 0 l-31 -72 l46 0 l-91 -573 l-197 0 l-22 -51 l-76 0 l22 51 l-44 0 Z" /><glyph glyph-name="Ugrave" unicode="ù" d="M172 799 l183 -133 l-64 -62 l-183 133 l64 62 ZM444 573 l-90 -573 l-317 0 l90 573 l76 0 l-79 -501 l162 0 l79 501 l79 0 Z" /><glyph glyph-name="Uacute" unicode="ú" d="M444 573 l-90 -573 l-317 0 l90 573 l76 0 l-79 -501 l162 0 l79 501 l79 0 ZM322 799 l-227 -133 l46 -62 l227 133 l-46 62 Z" /><glyph glyph-name="Ucircumflex" unicode="û" d="M444 573 l-90 -573 l-317 0 l90 573 l76 0 l-79 -501 l162 0 l79 501 l79 0 ZM260 803 l117 -139 l-64 -54 l-69 92 l-99 -92 l-47 54 l162 139 Z" /><glyph glyph-name="Udieresis" unicode="ü" d="M444 573 l-90 -573 l-317 0 l90 573 l76 0 l-79 -501 l162 0 l79 501 l79 0 Z" /><glyph glyph-name="Yacute" unicode="ý" d="M444 573 l-90 -573 l-317 0 l11 72 l238 0 l17 112 l-235 0 l61 389 l74 0 l-49 -315 l161 0 l50 315 l79 0 ZM322 799 l-227 -133 l46 -62 l227 133 l-46 62 Z" /><glyph glyph-name="germandbls" unicode="ß" d="M133 645 l219 0 l-11 -71 l-143 0 l-92 -574 l-75 0 l102 645 ZM307 75 l6 38 l-75 0 l-19 -113 l316 1 l36 231 l-227 55 l14 89 l162 0 l-14 -89 l76 0 l26 164 l-317 0 l-38 -236 l229 -55 l-13 -85 l-162 0 Z" /><glyph glyph-name="agrave" unicode="à" d="M326 266 l18 113 l-238 0 l12 72 l317 0 l-71 -451 l-316 0 l42 266 l236 0 ZM314 193 l-161 0 l-19 -119 l162 0 l18 119 ZM153 676 l183 -133 l-65 -62 l-183 133 l65 62 Z" /><glyph glyph-name="aacute" unicode="á" d="M326 266 l18 113 l-238 0 l12 72 l317 0 l-71 -451 l-316 0 l42 266 l236 0 ZM314 193 l-161 0 l-19 -119 l162 0 l18 119 ZM302 676 l-226 -133 l46 -62 l226 133 l-46 62 Z" /><glyph glyph-name="acircumflex" unicode="â" d="M326 266 l18 113 l-238 0 l12 72 l317 0 l-71 -451 l-316 0 l42 266 l236 0 ZM314 193 l-161 0 l-19 -119 l162 0 l18 119 ZM241 680 l116 -139 l-63 -54 l-70 93 l-98 -93 l-47 54 l162 139 Z" /><glyph glyph-name="atilde" unicode="ã" d="M179 633 l80 0 l-13 -87 l203 0 l23 147 l-62 0 l-14 -83 l-75 0 l13 83 l-205 0 l-24 -147 l60 0 l14 87 ZM326 266 l18 113 l-238 0 l12 72 l317 0 l-71 -451 l-316 0 l42 266 l236 0 ZM314 193 l-161 0 l-19 -119 l162 0 l18 119 Z" /><glyph glyph-name="adieresis" unicode="ä" d="M326 266 l18 113 l-238 0 l12 72 l317 0 l-71 -451 l-316 0 l42 266 l236 0 ZM314 193 l-161 0 l-19 -119 l162 0 l18 119 ZM92 676 l-20 -133 l75 0 l21 133 l-76 0 ZM276 676 l-20 -133 l76 0 l20 133 l-76 0 Z" /><glyph glyph-name="aring" unicode="å" d="M326 266 l18 113 l-238 0 l12 72 l317 0 l-71 -451 l-316 0 l42 266 l236 0 ZM314 193 l-161 0 l-19 -119 l162 0 l18 119 ZM68 520 l32 209 l191 0 l-33 -209 l-190 0 ZM228 685 l-76 -1 l-19 -121 l77 0 l18 122 Z" /><glyph glyph-name="ae" unicode="¾æ" d="M94 287 l236 0 l14 92 l-238 0 l12 72 l561 0 l-46 -287 l-236 0 l-14 -92 l238 0 l-12 -72 l-561 0 l46 287 ZM571 238 l22 139 l-162 0 l-21 -139 l161 0 ZM296 74 l21 139 l-161 0 l-22 -139 l162 0 Z" /><glyph glyph-name="ccedilla" unicode="ç" d="M145 -174 l80 174 l-165 0 l71 451 l318 0 l-26 -164 l-76 0 l14 89 l-161 0 l-48 -304 l229 0 l-11 -72 l-68 0 l-71 -174 l-86 0 Z" /><glyph glyph-name="egrave" unicode="è" d="M156 184 l-19 -112 l238 0 l-11 -72 l-318 0 l72 451 l315 0 l-42 -267 l-235 0 ZM167 258 l162 0 l18 119 l-162 0 l-18 -119 ZM153 676 l183 -133 l-65 -62 l-183 133 l65 62 Z" /><glyph glyph-name="eacute" unicode="é" d="M156 184 l-19 -112 l238 0 l-11 -72 l-318 0 l72 451 l315 0 l-42 -267 l-235 0 ZM167 258 l162 0 l18 119 l-162 0 l-18 -119 ZM302 676 l-226 -133 l46 -62 l226 133 l-46 62 Z" /><glyph glyph-name="ecircumflex" unicode="ê" d="M156 184 l-19 -112 l238 0 l-11 -72 l-318 0 l72 451 l315 0 l-42 -267 l-235 0 ZM167 258 l162 0 l18 119 l-162 0 l-18 -119 ZM241 680 l116 -139 l-63 -54 l-70 93 l-98 -93 l-47 54 l162 139 Z" /><glyph glyph-name="edieresis" unicode="ë" d="M156 184 l-19 -112 l238 0 l-11 -72 l-318 0 l72 451 l315 0 l-42 -267 l-235 0 ZM167 258 l162 0 l18 119 l-162 0 l-18 -119 ZM92 676 l-20 -133 l75 0 l21 133 l-76 0 ZM276 676 l-20 -133 l76 0 l20 133 l-76 0 Z" /><glyph glyph-name="igrave" unicode="ì" d="M118 450 l-72 -450 l76 0 l72 451 l-76 -1 ZM60 676 l184 -133 l-65 -62 l-183 133 l64 62 Z" /><glyph glyph-name="iacute" unicode="í" d="M118 450 l-72 -450 l76 0 l72 451 l-76 -1 ZM210 676 l-226 -133 l46 -62 l226 133 l-46 62 Z" /><glyph glyph-name="icircumflex" unicode="î" d="M118 450 l-72 -450 l76 0 l72 451 l-76 -1 ZM138 680 l117 -139 l-64 -54 l-69 93 l-98 -93 l-48 54 l162 139 Z" /><glyph glyph-name="idieresis" unicode="ï" d="M118 450 l-72 -450 l76 0 l72 451 l-76 -1 ZM0 676 l-20 -133 l75 0 l21 133 l-76 0 ZM184 676 l-20 -133 l76 0 l20 133 l-76 0 Z" /><glyph glyph-name="ntilde" unicode="ñ" d="M178 623 l80 0 l-13 -87 l202 0 l24 147 l-62 0 l-14 -83 l-76 0 l14 83 l-205 0 l-24 -147 l60 0 l14 87 ZM364 0 l71 451 l-317 0 l-72 -451 l76 0 l60 379 l162 0 l-60 -379 l80 0 Z" /><glyph glyph-name="ograve" unicode="ò" d="M46 0 l72 451 l317 0 l-71 -451 l-318 0 ZM347 377 l-162 -1 l-48 -304 l162 0 l48 305 ZM153 676 l183 -133 l-65 -62 l-183 133 l65 62 Z" /><glyph glyph-name="oacute" unicode="ó" d="M46 0 l72 451 l317 0 l-71 -451 l-318 0 ZM347 377 l-162 -1 l-48 -304 l162 0 l48 305 ZM302 676 l-226 -133 l46 -62 l226 133 l-46 62 Z" /><glyph glyph-name="ocircumflex" unicode="ô" d="M46 0 l72 451 l317 0 l-71 -451 l-318 0 ZM347 377 l-162 -1 l-48 -304 l162 0 l48 305 ZM241 680 l116 -139 l-63 -54 l-70 93 l-98 -93 l-47 54 l162 139 Z" /><glyph glyph-name="otilde" unicode="õ" d="M178 623 l80 0 l-13 -87 l202 0 l24 147 l-62 0 l-14 -83 l-76 0 l14 83 l-205 0 l-24 -147 l60 0 l14 87 ZM46 0 l72 451 l317 0 l-71 -451 l-318 0 ZM347 377 l-162 -1 l-48 -304 l162 0 l48 305 Z" /><glyph glyph-name="odieresis" unicode="ö" d="M46 0 l72 451 l317 0 l-71 -451 l-318 0 ZM347 377 l-162 -1 l-48 -304 l162 0 l48 305 ZM92 676 l-20 -133 l75 0 l21 133 l-76 0 ZM276 676 l-20 -133 l76 0 l20 133 l-76 0 Z" /><glyph glyph-name="divide" unicode="÷" d="M201 102 l-17 -102 l76 0 l16 102 l-75 0 ZM256 451 l-16 -103 l75 0 l17 103 l-76 0 ZM466 195 l11 71 l-430 0 l-11 -71 l430 0 Z" /><glyph glyph-name="oslash" unicode="ø" d="M45 0 l71 451 l182 0 l52 122 l76 0 l-52 -122 l59 0 l-71 -451 l-183 0 l-44 -102 l-76 0 l44 102 l-58 0 ZM265 376 l-81 0 l-47 -298 l128 298 ZM346 376 l-5 0 l-131 -304 l88 0 l48 304 Z" /><glyph glyph-name="ugrave" unicode="ù" d="M435 451 l-71 -451 l-318 0 l72 451 l76 0 l-61 -379 l162 0 l60 379 l80 0 ZM153 676 l183 -133 l-65 -62 l-183 133 l65 62 Z" /><glyph glyph-name="uacute" unicode="ú" d="M435 451 l-71 -451 l-318 0 l72 451 l76 0 l-61 -379 l162 0 l60 379 l80 0 ZM302 676 l-226 -133 l46 -62 l226 133 l-46 62 Z" /><glyph glyph-name="ucircumflex" unicode="û" d="M435 451 l-71 -451 l-318 0 l72 451 l76 0 l-61 -379 l162 0 l60 379 l80 0 ZM241 680 l116 -139 l-63 -54 l-70 93 l-98 -93 l-47 54 l162 139 Z" /><glyph glyph-name="udieresis" unicode="ü" d="M435 451 l-71 -451 l-318 0 l72 451 l76 0 l-61 -379 l162 0 l60 379 l80 0 ZM92 676 l-20 -133 l75 0 l21 133 l-76 0 ZM276 676 l-20 -133 l76 0 l20 133 l-76 0 Z" /><glyph glyph-name="yacute" unicode="ý" d="M305 696 l-225 -133 l45 -61 l226 133 l-46 61 ZM450 451 l-101 -635 l-317 0 l11 71 l238 0 l17 113 l-236 0 l72 451 l74 0 l-60 -377 l162 0 l60 377 l80 0 Z" /><glyph glyph-name="ydieresis" unicode="ÿ" d="M450 451 l-101 -635 l-317 0 l11 71 l238 0 l17 113 l-236 0 l72 451 l74 0 l-60 -377 l162 0 l60 377 l80 0 ZM92 676 l-20 -133 l75 0 l21 133 l-76 0 ZM276 676 l-20 -133 l76 0 l20 133 l-76 0 Z" /><glyph glyph-name="dotlessi" unicode="&#x131;" d="M118 450 l-72 -450 l76 0 l72 451 l-76 -1 Z" /><glyph glyph-name="OE" unicode="&#x152;" d="M125 78 l162 0 l66 423 l-162 0 l-66 -423 ZM607 78 l-12 -78 l-558 0 l90 573 q181 0 558 1 l-11 -72 l-241 0 l-19 -124 l240 0 l-11 -72 l-241 0 l-35 -228 l240 0 Z" /><glyph glyph-name="oe" unicode="&#x153;" d="M46 0 l72 451 l540 0 l-42 -267 l-235 0 l-19 -112 l238 0 l-11 -72 l-543 0 ZM554 258 l18 119 l-161 0 l-19 -119 l162 0 ZM299 72 l48 305 l-162 -1 l-48 -304 l162 0 Z" /><glyph glyph-name="Scaron" unicode="&#x160;" d="M124 75 l14 89 l-76 0 l-25 -164 l315 1 l38 242 l-214 136 l20 120 l161 0 l-14 -89 l76 0 l25 163 l-317 0 l-42 -266 l216 -137 l-15 -95 l-162 0 ZM229 610 l-116 140 l63 53 l70 -92 l98 92 l47 -53 l-162 -140 Z" /><glyph glyph-name="scaron" unicode="&#x161;" d="M134 75 l6 38 l-75 0 l-19 -113 l315 1 l37 231 l-226 55 l13 89 l162 0 l-13 -89 l76 0 l25 164 l-317 0 l-38 -236 l229 -55 l-13 -85 l-162 0 ZM210 487 l-117 140 l64 53 l69 -92 l99 92 l47 -53 l-162 -140 Z" /><glyph glyph-name="Ydieresis" unicode="&#x178;" d="M444 573 l-90 -573 l-317 0 l11 72 l238 0 l17 112 l-235 0 l61 389 l74 0 l-49 -315 l161 0 l50 315 l79 0 ZM103 748 l-20 -134 l76 0 l20 134 l-76 0 ZM288 748 l-21 -134 l76 0 l21 134 l-76 0 Z" /><glyph glyph-name="Zcaron" unicode="&#x17d;" d="M148 72 l209 0 l-11 -72 l-309 0 l11 72 l305 427 l-237 0 l11 74 l317 0 l-12 -77 l-284 -424 ZM228 600 l-117 139 l63 54 l70 -93 l98 93 l47 -54 l-161 -139 Z" /><glyph glyph-name="zcaron" unicode="&#x17e;" d="M158 72 l209 0 l-12 -72 l-309 0 l11 72 l286 304 l-238 0 l13 75 l317 0 l-12 -78 l-265 -301 ZM210 487 l-117 140 l64 53 l69 -92 l99 92 l47 -53 l-162 -140 Z" /><glyph glyph-name="florin" unicode="&#x192;" d="M102 255 l99 0 l30 196 l220 0 l-12 -71 l-143 0 l-20 -125 l144 0 l-11 -71 l-144 0 l-60 -379 l-76 0 l60 379 l-98 0 l11 71 Z" /><glyph glyph-name="circumflex" unicode="&#x2c6;" d="M241 680 l116 -139 l-63 -54 l-70 93 l-98 -93 l-47 54 l162 139 Z" /><glyph glyph-name="breve" unicode="&#x2d8;" d="M210 487 l-117 140 l64 53 l69 -92 l99 92 l47 -53 l-162 -140 Z" /><glyph glyph-name="ring" unicode="&#x2da;" d="M68 520 l32 209 l191 0 l-33 -209 l-190 0 ZM228 685 l-76 -1 l-20 -121 l77 0 l19 122 Z" /><glyph glyph-name="endash" unicode="ð&#x2013;" d="M506 205 l12 71 l-512 0 l-12 -71 l512 0 Z" /><glyph glyph-name="emdash" unicode="&#x2014;" d="M1018 205 l12 71 l-1024 0 l-12 -71 l1024 0 Z" /><glyph glyph-name="quoteleft" unicode="&#x2018;" d="M4 430 l94 205 l76 0 l-84 -205 l-86 0 Z" /><glyph glyph-name="quoteright" unicode="&#x2019;" d="M-37 430 l74 205 l86 0 l-84 -205 l-76 0 Z" /><glyph glyph-name="quotesinglbase" unicode="&#x201a;" d="M-37 -82 l74 205 l86 0 l-84 -205 l-76 0 Z" /><glyph glyph-name="quotedblleft" unicode="&#x201c;" d="M127 430 l94 205 l76 0 l-84 -205 l-86 0 ZM4 430 l94 205 l76 0 l-84 -205 l-86 0 Z" /><glyph glyph-name="quotedblright" unicode="&#x201d;" d="M86 430 l74 205 l86 0 l-84 -205 l-76 0 ZM-37 430 l74 205 l86 0 l-84 -205 l-76 0 Z" /><glyph glyph-name="quotedblbase" unicode="&#x201e;" d="M86 -82 l74 205 l86 0 l-84 -205 l-76 0 ZM-37 -82 l74 205 l86 0 l-84 -205 l-76 0 Z" /><glyph glyph-name="bullet" unicode="&#x2022;" d="M122 451 l205 0 l-39 -246 l-205 0 l39 246 Z" /><glyph glyph-name="guilsinglleft" unicode="&#x2039;" d="M51 236 l268 231 l47 -57 l-199 -174 l143 -175 l-64 -57 l-195 232 Z" /><glyph glyph-name="guilsinglright" unicode="&#x203a;" d="M338 236 l-195 231 l-64 -57 l143 -174 l-198 -175 l46 -57 l268 232 Z" /><glyph glyph-name="fraction" unicode="&#x2044;" d="M431 444 l-56 36 l-326 -443 l57 -36 l325 443 Z" /><glyph glyph-name="trademark" unicode="ª&#x2122;" d="M488 313 l-79 0 l30 197 l-65 0 l-31 -197 l-76 0 l43 271 l363 0 l-43 -271 l-79 0 l31 197 l-63 0 l-31 -197 ZM191 313 l-135 0 l31 197 l-55 0 l12 74 l55 0 l13 80 l75 0 l-12 -80 l59 0 l-12 -74 l-59 0 l-20 -123 l60 0 l-12 -74 Z" /><glyph glyph-name="minus" unicode="&#x2212;" d="M388 205 l12 71 l-378 0 l-13 -71 l379 0 Z" /><glyph glyph-name="infinity" unicode="°&#x221e;" d="M204 158 l25 160 l-110 0 l-26 -160 l111 0 ZM285 158 l105 0 l26 160 l-106 0 l-25 -160 ZM5 77 l51 317 l451 0 l-52 -317 l-450 0 Z" /><glyph glyph-name="notequal" unicode="­&#x2260;" d="M451 82 l-235 0 l-82 -112 l-57 36 l56 76 l-123 0 l12 72 l163 0 l38 51 l-193 0 l11 71 l234 0 l82 112 l58 -36 l-57 -76 l123 0 l-11 -71 l-164 0 l-38 -51 l194 0 l-11 -72 Z" /><glyph glyph-name="lessequal" unicode="²&#x2264;" d="M60 307 l262 191 l47 -58 l-193 -133 l150 -133 l-64 -57 l-202 190 ZM325 0 l11 72 l-338 0 l-11 -72 l338 0 Z" /><glyph glyph-name="greaterequal" unicode="³&#x2265;" d="M347 307 l-202 191 l-63 -58 l149 -133 l-192 -133 l47 -57 l261 190 ZM-13 0 l11 72 l338 0 l-11 -72 l-338 0 Z" /><glyph glyph-name="fi" unicode="þ&#xfb01;" d="M102 450 l99 0 l30 195 l220 0 l-12 -71 l-143 0 l-20 -124 l144 0 l-11 -71 l-144 0 l-60 -379 l-76 0 l60 379 l-98 0 l11 71 ZM509 450 l-71 -450 l76 0 l71 451 l-76 -1 ZM545 676 l-21 -133 l76 0 l21 133 l-76 0 Z" /><glyph glyph-name="fl" unicode="&#xfb02;" d="M102 450 l99 0 l30 195 l220 0 l-12 -71 l-143 0 l-20 -124 l144 0 l-11 -71 l-144 0 l-60 -379 l-76 0 l60 379 l-98 0 l11 71 ZM545 676 l-107 -676 l76 0 l107 676 l-76 0 Z" /></font>
</defs>
</svg>
